<?xml version="1.0" encoding="UTF-8"?>
<svg id="Capa_1" xmlns="http://www.w3.org/2000/svg" version="1.1" viewBox="0 0 652 199.6">
  <!-- Generator: Adobe Illustrator 29.6.1, SVG Export Plug-In . SVG Version: 2.1.1 Build 9)  -->
  <g>
    <path d="M141.1,41.1l-3.6,7.5-4,8.3-5.2,10.3-3.7,7.2c-1.8,2.8-5.2,4.3-9.6,4.7-2.7.5-6.5.5-10.3.5s-6.1-.3-7.5-.5c-4.8-.8-6.5-1.5-7.6-2.4-.7-.7-1.5-1.8-.9-3.5l3.2-6v-.2c0,0-55.8,0-55.8,0v.2c0,0-4.1,8.6-4.1,8.6-4.4,8.4,3.7,13.3,24.4,16.6,11.9,1.6,28.9,2.3,52.1,2.3,32-1.1,76.1.7,83.9-18.4l3.2-9.1,6.7-18.6,5.9-16.3h-63l-4.2,8.7h0Z"/>
    <path d="M383.7,60.2c-4.2-.2-8.5-.5-13.7-.5,20.1-1.6,29-6.1,30.8-11.1.4-.8.4-1.7.4-2.7,0-10.6-16.4-13.6-30.5-13.6h-134.7l-4.5,16.3-3.4,12.1-1.6,6.5-7,27.4,151.1.2c24.4,0,43.3-6.2,45.8-15.4,1.2-4.3-.2-8.5-6-12.1-5.3-3.2-14-5.8-26.5-7h0ZM292.7,43.9h28.3c6.5-.2,12.6,1.2,12.7,4.8h0c-.5,2.2-2.7,4.5-12.2,4.8h-30.3l1.5-9.6h0ZM325.7,77.5h-37.8l1.8-13.3h34.5c8.9,0,15,2.1,14.9,7.6,0,4.5-7.5,5.4-13.5,5.6h0Z"/>
    <path d="M611.4,67.3c0,0,0-.2-.2-.2h-65.6v.2c0,0,3.5,6.5,3.5,6.5,3,7.3-43,7.5-45.6,1.2l-3-7.7-7.2-18.6-.2-.8c-1.8-5.1,36.8-6.3,40.1-.7l1,1.5,3.3,4.8h65.6s-3.3-6.2-6.6-9.1c-14.3-12.2-63.4-12.5-87.8-12.5s-65.8-1.6-74.7,9.2c-1.9,1.9-2.8,4.2-2.4,7.2v.3c.1,0,4.7,18.6,4.7,18.6l2.9,11.9c1.8,6.3,15.5,11.3,35.9,13.9,21.4,2.5,46.8,2.5,61.9,2.5s43-.7,59.5-3c17-2.6,26.5-7,22.1-15-2.7-4.6-5-7.5-7.4-10.2h0Z"/>
  </g>
  <g>
    <path d="M119.2,118.9h29.9v1.9h-13.9v32.4h-2.2v-32.4h-13.8v-1.9h0Z"/>
    <path d="M152.2,118.9h2.2v14.6h.1c1.5-2.9,4.8-5.7,10.4-5.7,11.3,0,11.3,7.2,11.3,10.2v15.2h-2.2v-15.1c0-5-1.9-8.4-9.1-8.4s-10.4,4.5-10.4,9.1v14.4h-2.2v-34.3h0Z"/>
    <path d="M183.1,141.4c.1,6.1,4.3,10.7,11.7,10.7s9.6-4.8,10.5-7h2.2c-2.1,6.2-6.4,8.9-12.9,8.9s-13.7-5.1-13.7-13.3,3.3-12.9,13.8-12.9,13.5,5.7,13.6,13.6h-25.1,0ZM205.7,139.5c-.9-6.7-5.6-9.7-11.3-9.7s-10.3,3.9-11.3,9.7h22.6Z"/>
    <path d="M225.6,141.9c0,6.4,3.9,10.2,13.2,10.2s11.5-3.6,11.5-7.6-1.8-5.6-9-7.1l-6.4-1.4c-7.5-1.6-10.4-3.8-10.4-9s4.5-8.9,13-8.9,14.1,3.2,14.4,10.5h-2.2c-.3-3.9-2.5-8.6-11.5-8.6s-11.1,3.1-11.1,7,1.6,5.5,8.1,6.8l7.1,1.4c6.9,1.4,10.6,3.6,10.6,9s-3.1,9.7-13.8,9.7-15.6-4.9-15.6-12.1h2.2,0Z"/>
    <path d="M270.1,127.8c8.8,0,13.9,6.1,13.9,13.1s-5.1,13.1-13.9,13.1-13.9-6.2-13.9-13.1,5.1-13.1,13.9-13.1ZM270.1,152.1c7.8,0,11.7-5.5,11.7-11.1s-3.9-11.1-11.7-11.1-11.7,5.5-11.7,11.1,3.9,11.1,11.7,11.1Z"/>
    <path d="M288.8,118.9h2.2v34.3h-2.2v-34.3Z"/>
    <path d="M320,147.8h-.1c-1.1,2.9-4.6,6.2-10.9,6.2s-13.1-6.2-13.1-13.1,5.6-13,13.1-13,9.5,3.3,10.9,6h.1v-14.9h2.2v34.3h-2.2v-5.4ZM320.3,141.1c0-8.6-6.2-11.4-11.2-11.4s-11,3.6-11,11.1,4.6,11.2,10.7,11.2c9.2,0,11.5-6.5,11.5-10.9h0Z"/>
    <path d="M329.2,141.4c.1,6.1,4.3,10.7,11.7,10.7s9.6-4.8,10.5-7h2.2c-2.1,6.2-6.4,8.9-12.9,8.9s-13.7-5.1-13.7-13.3,3.3-12.9,13.8-12.9,13.5,5.7,13.6,13.6h-25.1ZM351.8,139.5c-.9-6.7-5.6-9.7-11.3-9.7s-10.3,3.9-11.3,9.7h22.6,0Z"/>
    <path d="M358.7,128.6h2.2v5.8h.1c1.6-4.3,5.4-6.6,10.2-6.6s1.1,0,1.8.3v2.2c-.5-.2-1.1-.3-2.5-.3-6.4,0-9.6,4.9-9.6,9.9v13.3h-2.2v-24.6h0Z"/>
    <path d="M376.4,118.9h2.2v5.1h-2.2v-5.1ZM376.4,128.6h2.2v24.6h-2.2v-24.6Z"/>
    <path d="M384.8,128.6h2.2v4.9h0c1.5-2.9,4.8-5.7,10.4-5.7,11.3,0,11.3,7.2,11.3,10.2v15.2h-2.2v-15.1c0-5-1.9-8.4-9.1-8.4s-10.4,4.5-10.4,9.1v14.4h-2.2v-24.6h0Z"/>
    <path d="M438.5,128.6h2.2v23.4c0,5.6-2,11.8-13.5,11.8s-11.9-2.3-12.7-8.3h2.2c.5,3.9,3.3,6.4,10.5,6.4s11.2-5.2,11.2-9.8v-5.1h-.1c-2.2,4.1-6.4,5.9-11.5,5.9-9.6,0-13.4-6.1-13.4-12.7s4-12.4,13.4-12.4,9.1,1.2,11.5,5.7h.1c0,0,0-4.9,0-4.9ZM415.7,140.1c0,7,4.1,10.9,11.4,10.9s11.4-3.5,11.4-10.9-4.4-10.3-11.6-10.3-11.2,3.3-11.2,10.4Z"/>
    <path d="M493,140.2c-.8,6.5-6.6,13.8-16.9,13.8s-18.3-6.6-18.3-17.9,5.7-17.9,18.3-17.9,14.6,3.9,16.3,11.5h-2.2c-1.6-6.6-7.6-9.6-14.1-9.6-9.8,0-16.1,7.4-16.1,16s5.5,16,16.1,16,13.4-4.4,14.7-11.9h2.2Z"/>
    <path d="M510.5,127.8c8.8,0,13.9,6.1,13.9,13.1s-5.1,13.1-13.9,13.1-13.9-6.2-13.9-13.1,5.1-13.1,13.9-13.1h0ZM510.5,152.1c7.8,0,11.7-5.5,11.7-11.1s-3.9-11.1-11.7-11.1-11.7,5.5-11.7,11.1,3.9,11.1,11.7,11.1h0Z"/>
    <path d="M529,148.4h2.5v4.8h-2.5v-4.8Z"/>
  </g>
</svg>