<?xml version="1.0" encoding="UTF-8"?>
<svg id="Capa_1" data-name="Capa 1" xmlns="http://www.w3.org/2000/svg" xmlns:xlink="http://www.w3.org/1999/xlink" viewBox="0 0 651.97 199.61">
  <defs>
    <style>
      .cls-1 {
        filter: url(#drop-shadow-1);
      }

      .cls-1, .cls-2, .cls-3 {
        fill: #d52b1e;
      }

      .cls-2 {
        filter: url(#drop-shadow-3);
      }

      .cls-3 {
        filter: url(#drop-shadow-2);
      }

      .cls-4 {
        fill: #fff;
        stroke: #fff;
        stroke-miterlimit: 10;
      }
    </style>
    <filter id="drop-shadow-1" x="31.5" y="32.4" width="177.43" height="62.37" filterUnits="userSpaceOnUse">
      <feOffset dx="2.83" dy="2.83"/>
      <feGaussianBlur result="blur" stdDeviation="5"/>
      <feFlood flood-color="#302d2f" flood-opacity=".75"/>
      <feComposite in2="blur" operator="in"/>
      <feComposite in="SourceGraphic"/>
    </filter>
    <filter id="drop-shadow-2" x="220.02" y="32.4" width="197.23" height="62.37" filterUnits="userSpaceOnUse">
      <feOffset dx="2.83" dy="2.83"/>
      <feGaussianBlur result="blur-2" stdDeviation="5"/>
      <feFlood flood-color="#302d2f" flood-opacity=".75"/>
      <feComposite in2="blur-2" operator="in"/>
      <feComposite in="SourceGraphic"/>
    </filter>
    <filter id="drop-shadow-3" x="432.29" y="31.81" width="188.17" height="63.7" filterUnits="userSpaceOnUse">
      <feOffset dx="2.83" dy="2.83"/>
      <feGaussianBlur result="blur-3" stdDeviation="5"/>
      <feFlood flood-color="#302d2f" flood-opacity=".75"/>
      <feComposite in2="blur-3" operator="in"/>
      <feComposite in="SourceGraphic"/>
    </filter>
  </defs>
  <rect width="651.97" height="199.61"/>
  <g>
    <g>
      <path class="cls-1" d="M141.72,41.11l-3.58,7.55-4.01,8.27-5.25,10.34-3.66,7.2c-1.84,2.81-5.15,4.28-9.6,4.67-2.71.52-6.46.52-10.3.52-3.23,0-6.1-.29-7.51-.52-4.78-.76-6.52-1.49-7.59-2.36-.68-.66-1.47-1.82-.87-3.49l3.16-6.02.08-.21h-55.84l-.1.21-4.01,8.62c-4.37,8.44,3.74,13.34,24.43,16.59,11.94,1.63,28.87,2.3,52.08,2.3,32.04-1.06,76.09.74,83.95-18.45l3.23-9.06,6.72-18.6,5.87-16.26h-63.03l-4.18,8.71h0Z"/>
      <path class="cls-3" d="M384.3,60.24c-4.18-.23-8.46-.45-13.69-.45,20.07-1.62,28.96-6.08,30.79-11.13.35-.85.35-1.74.35-2.65,0-10.65-16.41-13.61-30.45-13.61h-134.72l-4.53,16.26-3.41,12.08-1.65,6.52-6.99,27.36,151.08.15c24.39,0,43.26-6.23,45.76-15.41,1.18-4.3-.17-8.5-6.02-12.1-5.32-3.25-13.96-5.85-26.54-7.03h0ZM293.3,43.88h28.26c6.54-.23,12.58,1.18,12.74,4.78v.1c-.52,2.09-2.71,4.45-12.21,4.68h-30.28l1.49-9.56h0ZM326.36,77.51h-37.78l1.84-13.27h34.55c8.92,0,14.96,2.13,14.93,7.64-.04,4.46-7.51,5.39-13.53,5.62h0Z"/>
      <path class="cls-2" d="M612.01,67.26c-.1-.06-.1-.15-.17-.21h-65.62l.06.21,3.43,6.48c3.04,7.32-43.03,7.54-45.56,1.22l-2.96-7.71-7.16-18.6-.25-.79c-1.84-5.13,36.82-6.35,40.12-.73l1.05,1.53,3.33,4.78h65.62s-3.27-6.19-6.62-9.06c-14.27-12.16-63.37-12.49-87.8-12.49-17.96,0-65.79-1.62-74.7,9.21-1.91,1.86-2.79,4.16-2.36,7.2l.1.35,4.62,18.6,2.88,11.87c1.82,6.31,15.53,11.27,35.87,13.9,21.37,2.48,46.77,2.48,61.86,2.48,19.36,0,43.01-.74,59.52-3.04,17-2.59,26.52-7.03,22.14-14.96-2.69-4.55-5.05-7.48-7.39-10.25h0Z"/>
    </g>
    <g>
      <path class="cls-4" d="M118,118.89h29.91v1.92h-13.85v32.41h-2.21v-32.41h-13.85v-1.92Z"/>
      <path class="cls-4" d="M150.97,118.89h2.21v14.62h.1c1.54-2.93,4.76-5.67,10.39-5.67,11.3,0,11.3,7.21,11.3,10.19v15.19h-2.21v-15.1c0-5-1.87-8.37-9.14-8.37s-10.43,4.52-10.43,9.09v14.38h-2.21v-34.33Z"/>
      <path class="cls-4" d="M181.86,141.39c.14,6.15,4.33,10.67,11.73,10.67s9.62-4.81,10.48-7.02h2.21c-2.07,6.2-6.4,8.94-12.93,8.94-8.41,0-13.7-5.1-13.7-13.27,0-5.15,3.27-12.88,13.75-12.88,8.56,0,13.46,5.67,13.56,13.56h-25.1ZM204.46,139.47c-.91-6.73-5.63-9.71-11.3-9.71-6.35,0-10.34,3.85-11.3,9.71h22.6Z"/>
      <path class="cls-4" d="M224.4,141.87c.05,6.4,3.94,10.19,13.17,10.19,8.42,0,11.49-3.6,11.49-7.64s-1.83-5.58-9.04-7.07l-6.4-1.35c-7.5-1.59-10.38-3.8-10.38-8.99s4.47-8.9,12.98-8.9,14.14,3.17,14.38,10.48h-2.21c-.29-3.94-2.5-8.56-11.54-8.56-8.37,0-11.11,3.08-11.11,7.02,0,3.65,1.59,5.48,8.13,6.78l7.07,1.39c6.88,1.35,10.63,3.56,10.63,9.04,0,4.66-3.08,9.71-13.8,9.71-11.25,0-15.58-4.86-15.58-12.12h2.21Z"/>
      <path class="cls-4" d="M268.83,127.83c8.8,0,13.89,6.15,13.89,13.08s-5.1,13.08-13.89,13.08-13.9-6.16-13.9-13.08,5.1-13.08,13.9-13.08ZM268.83,152.06c7.79,0,11.68-5.53,11.68-11.15s-3.89-11.15-11.68-11.15-11.69,5.53-11.69,11.15,3.89,11.15,11.69,11.15Z"/>
      <path class="cls-4" d="M287.58,118.89h2.21v34.33h-2.21v-34.33Z"/>
      <path class="cls-4" d="M318.78,147.83h-.1c-1.15,2.93-4.57,6.16-10.91,6.16-8.65,0-13.13-6.16-13.13-13.13,0-7.84,5.63-13.03,13.13-13.03,6.06,0,9.47,3.32,10.91,6.01h.1v-14.95h2.21v34.33h-2.21v-5.39ZM319.07,141.15c0-8.65-6.25-11.39-11.25-11.39-5.67,0-10.96,3.56-10.96,11.06,0,7.07,4.57,11.25,10.68,11.25,9.23,0,11.54-6.54,11.54-10.91Z"/>
      <path class="cls-4" d="M328,141.39c.14,6.15,4.33,10.67,11.73,10.67s9.62-4.81,10.48-7.02h2.21c-2.07,6.2-6.4,8.94-12.93,8.94-8.42,0-13.7-5.1-13.7-13.27,0-5.15,3.27-12.88,13.75-12.88,8.56,0,13.46,5.67,13.56,13.56h-25.1ZM350.6,139.47c-.91-6.73-5.63-9.71-11.3-9.71-6.35,0-10.34,3.85-11.3,9.71h22.6Z"/>
      <path class="cls-4" d="M357.5,128.6h2.21v5.82h.1c1.64-4.33,5.39-6.59,10.19-6.59.67,0,1.15.1,1.83.29v2.21c-.53-.19-1.15-.29-2.55-.29-6.39,0-9.57,4.86-9.57,9.86v13.32h-2.21v-24.62Z"/>
      <path class="cls-4" d="M375.18,118.89h2.21v5.1h-2.21v-5.1ZM375.18,128.6h2.21v24.62h-2.21v-24.62Z"/>
      <path class="cls-4" d="M383.58,128.6h2.21v4.9h.09c1.54-2.93,4.76-5.67,10.39-5.67,11.3,0,11.3,7.21,11.3,10.19v15.19h-2.21v-15.1c0-5-1.88-8.37-9.14-8.37s-10.43,4.52-10.43,9.09v14.38h-2.21v-24.62Z"/>
      <path class="cls-4" d="M437.26,128.6h2.21v23.41c0,5.63-2.02,11.78-13.46,11.78-7.65,0-11.92-2.26-12.74-8.27h2.21c.53,3.89,3.32,6.35,10.53,6.35,9.57,0,11.25-5.19,11.25-9.76v-5.1h-.1c-2.16,4.09-6.35,5.91-11.54,5.91-9.57,0-13.37-6.11-13.37-12.69s4.04-12.4,13.42-12.4c4.42,0,9.13,1.2,11.49,5.72l.1.05v-5ZM414.47,140.14c0,7.02,4.14,10.87,11.44,10.87,6.4,0,11.35-3.46,11.35-10.92,0-6.49-4.37-10.34-11.59-10.34-5.82,0-11.2,3.27-11.2,10.39Z"/>
      <path class="cls-4" d="M491.78,140.19c-.77,6.54-6.59,13.8-16.88,13.8s-18.27-6.59-18.27-17.94c0-8.32,5.67-17.93,18.27-17.93,8.27,0,14.57,3.89,16.3,11.54h-2.21c-1.64-6.59-7.65-9.62-14.09-9.62-9.81,0-16.06,7.36-16.06,16.01s5.53,16.01,16.06,16.01c7.6,0,13.37-4.42,14.66-11.87h2.21Z"/>
      <path class="cls-4" d="M509.24,127.83c8.8,0,13.89,6.15,13.89,13.08s-5.1,13.08-13.89,13.08-13.9-6.16-13.9-13.08,5.1-13.08,13.9-13.08ZM509.24,152.06c7.79,0,11.68-5.53,11.68-11.15s-3.89-11.15-11.68-11.15-11.69,5.53-11.69,11.15,3.89,11.15,11.69,11.15Z"/>
      <path class="cls-4" d="M527.75,148.41h2.5v4.81h-2.5v-4.81Z"/>
    </g>
  </g>
</svg>