  0
SECTION
  2
HEADER
  9
$ACADVER
  1
AC1009
  9
$DWGCODEPAGE
  3
ansi_1252
  9
$INSBASE
 10
0.0
 20
0.0
 30
0.0
  9
$EXTMIN
 10
-0.5
 20
-0.5
 30
-0.5
  9
$EXTMAX
 10
5.0
 20
5.0
 30
5.0
  9
$LIMMIN
 10
-0.5
 20
-0.5
  9
$LIMMAX
 10
5.0
 20
5.0
  9
$ORTHOMODE
 70
     0
  9
$REGENMODE
 70
     1
  9
$FILLMODE
 70
     1
  9
$QTEXTMODE
 70
     0
  9
$MIRRTEXT
 70
     1
  9
$DRAGMODE
 70
     2
  9
$LTSCALE
 40
1.0
  9
$OSMODE
 70
    37
  9
$ATTMODE
 70
     1
  9
$TEXTSIZE
 40
0.2
  9
$TRACEWID
 40
0.05
  9
$TEXTSTYLE
  7
STANDARD
  9
$CLAYER
  8
0
  9
$CELTYPE
  6
BYLAYER
  9
$CECOLOR
 62
   256
  9
$DIMSCALE
 40
1.0
  9
$DIMASZ
 40
0.18
  9
$DIMEXO
 40
0.0625
  9
$DIMDLI
 40
0.38
  9
$DIMRND
 40
0.0
  9
$DIMDLE
 40
0.0
  9
$DIMEXE
 40
0.18
  9
$DIMTP
 40
0.0
  9
$DIMTM
 40
0.0
  9
$DIMTXT
 40
0.18
  9
$DIMCEN
 40
0.09
  9
$DIMTSZ
 40
0.0
  9
$DIMTOL
 70
     0
  9
$DIMLIM
 70
     0
  9
$DIMTIH
 70
     1
  9
$DIMTOH
 70
     1
  9
$DIMSE1
 70
     0
  9
$DIMSE2
 70
     0
  9
$DIMTAD
 70
     0
  9
$DIMZIN
 70
     0
  9
$DIMBLK
  1

  9
$DIMASO
 70
     1
  9
$DIMSHO
 70
     1
  9
$DIMPOST
  1

  9
$DIMAPOST
  1

  9
$DIMALT
 70
     0
  9
$DIMALTD
 70
     2
  9
$DIMALTF
 40
25.4
  9
$DIMLFAC
 40
1.0
  9
$DIMTOFL
 70
     0
  9
$DIMTVP
 40
0.0
  9
$DIMTIX
 70
     0
  9
$DIMSOXD
 70
     0
  9
$DIMSAH
 70
     0
  9
$DIMBLK1
  1

  9
$DIMBLK2
  1

  9
$DIMSTYLE
  2
STANDARD
  9
$DIMCLRD
 70
     0
  9
$DIMCLRE
 70
     0
  9
$DIMCLRT
 70
     0
  9
$DIMTFAC
 40
1.0
  9
$DIMGAP
 40
0.09
  9
$LUNITS
 70
     2
  9
$LUPREC
 70
     4
  9
$SKETCHINC
 40
0.1
  9
$FILLETRAD
 40
0.0
  9
$AUNITS
 70
     0
  9
$AUPREC
 70
     0
  9
$MENU
  1
.
  9
$ELEVATION
 40
0.0
  9
$PELEVATION
 40
0.0
  9
$THICKNESS
 40
0.0
  9
$LIMCHECK
 70
     0
  9
$CHAMFERA
 40
0.0
  9
$CHAMFERB
 40
0.0
  9
$SKPOLY
 70
     0
  9
$TDCREATE
 40
2461160.689566216
  9
$TDUPDATE
 40
2461160.68956625
  9
$TDINDWG
 40
0.0000000116
  9
$TDUSRTIMER
 40
0.0000000116
  9
$USRTIMER
 70
     1
  9
$ANGBASE
 50
0.0
  9
$ANGDIR
 70
     0
  9
$PDMODE
 70
     0
  9
$PDSIZE
 40
0.0
  9
$PLINEWID
 40
0.0
  9
$COORDS
 70
     1
  9
$SPLFRAME
 70
     0
  9
$SPLINETYPE
 70
     6
  9
$SPLINESEGS
 70
     8
  9
$ATTDIA
 70
     0
  9
$ATTREQ
 70
     1
  9
$HANDLING
 70
     1
  9
$HANDSEED
  5
14C
  9
$SURFTAB1
 70
     6
  9
$SURFTAB2
 70
     6
  9
$SURFTYPE
 70
     6
  9
$SURFU
 70
     6
  9
$SURFV
 70
     6
  9
$UCSNAME
  2

  9
$UCSORG
 10
0.0
 20
0.0
 30
0.0
  9
$UCSXDIR
 10
1.0
 20
0.0
 30
0.0
  9
$UCSYDIR
 10
0.0
 20
1.0
 30
0.0
  9
$PUCSNAME
  2

  9
$PUCSORG
 10
0.0
 20
0.0
 30
0.0
  9
$PUCSXDIR
 10
1.0
 20
0.0
 30
0.0
  9
$PUCSYDIR
 10
0.0
 20
1.0
 30
0.0
  9
$USERI1
 70
     0
  9
$USERI2
 70
     0
  9
$USERI3
 70
     0
  9
$USERI4
 70
     0
  9
$USERI5
 70
     0
  9
$USERR1
 40
0.0
  9
$USERR2
 40
0.0
  9
$USERR3
 40
0.0
  9
$USERR4
 40
0.0
  9
$USERR5
 40
0.0
  9
$WORLDVIEW
 70
     1
  9
$SHADEDGE
 70
     3
  9
$SHADEDIF
 70
    70
  9
$TILEMODE
 70
     1
  9
$MAXACTVP
 70
    64
  9
$PLIMCHECK
 70
     0
  9
$PEXTMIN
 10
-0.5
 20
-0.5
 30
-0.5
  9
$PEXTMAX
 10
5.0
 20
5.0
 30
5.0
  9
$PLIMMIN
 10
-0.5
 20
-0.5
  9
$PLIMMAX
 10
5.0
 20
5.0
  9
$UNITMODE
 70
     0
  9
$VISRETAIN
 70
     1
  9
$PLINEGEN
 70
     0
  9
$PSLTSCALE
 70
     1
  0
ENDSEC
  0
SECTION
  2
TABLES
  0
TABLE
  2
VPORT
 70
    16
  0
VPORT
  2
*ACTIVE
 70
     0
 10
0.0
 20
0.0
 11
1.0
 21
1.0
 12
-79.0
 22
0.0
 13
0.0
 23
0.0
 14
0.5
 24
0.5
 15
0.5
 25
0.5
 16
0.0
 26
0.0
 36
1.0
 17
0.0
 27
0.0
 37
0.0
 40
310.35625
 41
0.057214
 42
50.0
 43
461.080916
 44
-461.080916
 50
0.0
 51
0.0
 71
     0
 72
   100
 73
     1
 74
     3
 75
     0
 76
     0
 77
     0
 78
     0
  0
VPORT
  2
L1
 70
     0
 10
0.0
 20
0.0
 11
1.0
 21
1.0
 12
-79.0
 22
0.0
 13
0.0
 23
0.0
 14
0.5
 24
0.5
 15
0.5
 25
0.5
 16
0.0
 26
0.0
 36
1.0
 17
0.0
 27
0.0
 37
0.0
 40
310.35625
 41
0.057214
 42
50.0
 43
461.080916
 44
-461.080916
 50
0.0
 51
0.0
 71
     0
 72
   100
 73
     1
 74
     3
 75
     0
 76
     0
 77
     0
 78
     0
  0
VPORT
  2
L2
 70
     0
 10
0.0
 20
0.0
 11
0.5
 21
1.0
 12
0.0
 22
0.0
 13
0.0
 23
0.0
 14
0.5
 24
0.5
 15
0.5
 25
0.5
 16
0.0
 26
-1.0
 36
0.0
 17
0.0
 27
0.0
 37
0.0
 40
2035.14203
 41
0.008725
 42
50.0
 43
1049.923976
 44
-1049.923976
 50
0.0
 51
0.0
 71
     0
 72
   100
 73
     1
 74
     3
 75
     0
 76
     0
 77
     0
 78
     0
  0
VPORT
  2
L2
 70
     0
 10
0.5
 20
0.0
 11
1.0
 21
1.0
 12
0.0
 22
0.0
 13
0.0
 23
0.0
 14
0.5
 24
0.5
 15
0.5
 25
0.5
 16
1.0
 26
0.0
 36
0.0
 17
0.0
 27
0.0
 37
0.0
 40
2035.14203
 41
0.008725
 42
50.0
 43
1029.335233
 44
-1029.335233
 50
0.0
 51
0.0
 71
     0
 72
   100
 73
     1
 74
     3
 75
     0
 76
     0
 77
     0
 78
     0
  0
VPORT
  2
L3
 70
     0
 10
0.0
 20
0.5
 11
1.0
 21
1.0
 12
-79.0
 22
0.0
 13
0.0
 23
0.0
 14
0.5
 24
0.5
 15
0.5
 25
0.5
 16
0.0
 26
0.0
 36
1.0
 17
0.0
 27
0.0
 37
0.0
 40
310.35625
 41
0.057214
 42
50.0
 43
461.080916
 44
-461.080916
 50
0.0
 51
0.0
 71
     0
 72
   100
 73
     1
 74
     3
 75
     0
 76
     0
 77
     0
 78
     0
  0
VPORT
  2
L3
 70
     0
 10
0.0
 20
0.0
 11
1.0
 21
0.5
 12
0.0
 22
0.0
 13
0.0
 23
0.0
 14
0.5
 24
0.5
 15
0.5
 25
0.5
 16
0.0
 26
-1.0
 36
0.0
 17
0.0
 27
0.0
 37
0.0
 40
2035.14203
 41
0.008725
 42
50.0
 43
1049.923976
 44
-1049.923976
 50
0.0
 51
0.0
 71
     0
 72
   100
 73
     1
 74
     3
 75
     0
 76
     0
 77
     0
 78
     0
  0
VPORT
  2
L4
 70
     0
 10
0.0
 20
0.5
 11
0.5
 21
1.0
 12
-79.0
 22
0.0
 13
0.0
 23
0.0
 14
0.5
 24
0.5
 15
0.5
 25
0.5
 16
0.0
 26
0.0
 36
1.0
 17
0.0
 27
0.0
 37
0.0
 40
310.35625
 41
0.057214
 42
50.0
 43
461.080916
 44
-461.080916
 50
0.0
 51
0.0
 71
     0
 72
   100
 73
     1
 74
     3
 75
     0
 76
     0
 77
     0
 78
     0
  0
VPORT
  2
L4
 70
     0
 10
0.0
 20
0.0
 11
0.5
 21
0.5
 12
0.0
 22
0.0
 13
0.0
 23
0.0
 14
0.5
 24
0.5
 15
0.5
 25
0.5
 16
0.0
 26
-1.0
 36
0.0
 17
0.0
 27
0.0
 37
0.0
 40
2035.14203
 41
0.008725
 42
50.0
 43
1049.923976
 44
-1049.923976
 50
0.0
 51
0.0
 71
     0
 72
   100
 73
     1
 74
     3
 75
     0
 76
     0
 77
     0
 78
     0
  0
VPORT
  2
L4
 70
     0
 10
0.5
 20
0.0
 11
1.0
 21
0.5
 12
0.0
 22
0.0
 13
0.0
 23
0.0
 14
0.5
 24
0.5
 15
0.5
 25
0.5
 16
1.0
 26
0.0
 36
0.0
 17
0.0
 27
0.0
 37
0.0
 40
2035.14203
 41
0.008725
 42
50.0
 43
1029.335233
 44
-1029.335233
 50
0.0
 51
0.0
 71
     0
 72
   100
 73
     1
 74
     3
 75
     0
 76
     0
 77
     0
 78
     0
  0
VPORT
  2
L4
 70
     0
 10
0.5
 20
0.5
 11
1.0
 21
1.0
 12
0.0
 22
0.0
 13
0.0
 23
0.0
 14
0.5
 24
0.5
 15
0.5
 25
0.5
 16
0.5773502691896258
 26
-0.5773502691896258
 36
0.5773502691896258
 17
0.0
 27
0.0
 37
0.0
 40
1999.559599
 41
0.00888
 42
50.0
 43
1041.718923
 44
-1041.718923
 50
0.0
 51
0.0
 71
     0
 72
   100
 73
     1
 74
     3
 75
     0
 76
     0
 77
     0
 78
     0
  0
VPORT
  2
L6
 70
     0
 10
0.0
 20
0.5
 11
0.333333
 21
1.0
 12
0.0
 22
0.0
 13
0.0
 23
0.0
 14
0.5
 24
0.5
 15
0.5
 25
0.5
 16
0.7188730927569433
 26
-0.5850486126764433
 36
0.3754192287502549
 17
0.0
 27
0.0
 37
0.0
 40
2110.441744
 41
0.008414
 42
50.0
 43
1092.66887
 44
-1092.66887
 50
0.0
 51
0.0
 71
     0
 72
   100
 73
     1
 74
     3
 75
     0
 76
     0
 77
     0
 78
     0
  0
VPORT
  2
L6
 70
     0
 10
0.0
 20
0.0
 11
0.333333
 21
0.5
 12
0.0
 22
0.0
 13
0.0
 23
0.0
 14
0.5
 24
0.5
 15
0.5
 25
0.5
 16
-1.0
 26
0.0
 36
0.0
 17
0.0
 27
0.0
 37
0.0
 40
2035.14203
 41
0.008725
 42
50.0
 43
1029.335233
 44
-1029.335233
 50
0.0
 51
0.0
 71
     0
 72
   100
 73
     1
 74
     3
 75
     0
 76
     0
 77
     0
 78
     0
  0
VPORT
  2
L6
 70
     0
 10
0.333333
 20
0.5
 11
0.666667
 21
1.0
 12
-79.0
 22
0.0
 13
0.0
 23
0.0
 14
0.5
 24
0.5
 15
0.5
 25
0.5
 16
0.0
 26
0.0
 36
1.0
 17
0.0
 27
0.0
 37
0.0
 40
310.35625
 41
0.057214
 42
50.0
 43
461.080916
 44
-461.080916
 50
0.0
 51
0.0
 71
     0
 72
   100
 73
     1
 74
     3
 75
     0
 76
     0
 77
     0
 78
     0
  0
VPORT
  2
L6
 70
     0
 10
0.333333
 20
0.0
 11
0.666667
 21
0.5
 12
0.0
 22
0.0
 13
0.0
 23
0.0
 14
0.5
 24
0.5
 15
0.5
 25
0.5
 16
0.0
 26
-1.0
 36
0.0
 17
0.0
 27
0.0
 37
0.0
 40
2035.14203
 41
0.008725
 42
50.0
 43
1049.923976
 44
-1049.923976
 50
0.0
 51
0.0
 71
     0
 72
   100
 73
     1
 74
     3
 75
     0
 76
     0
 77
     0
 78
     0
  0
VPORT
  2
L6
 70
     0
 10
0.666667
 20
0.5
 11
1.0
 21
1.0
 12
0.0
 22
0.0
 13
0.0
 23
0.0
 14
0.5
 24
0.5
 15
0.5
 25
0.5
 16
0.5773502691896258
 26
-0.5773502691896258
 36
0.5773502691896258
 17
0.0
 27
0.0
 37
0.0
 40
1999.559599
 41
0.00888
 42
50.0
 43
1041.718923
 44
-1041.718923
 50
0.0
 51
0.0
 71
     0
 72
   100
 73
     1
 74
     3
 75
     0
 76
     0
 77
     0
 78
     0
  0
VPORT
  2
L6
 70
     0
 10
0.666667
 20
0.0
 11
1.0
 21
0.5
 12
0.0
 22
0.0
 13
0.0
 23
0.0
 14
0.5
 24
0.5
 15
0.5
 25
0.5
 16
1.0
 26
0.0
 36
0.0
 17
0.0
 27
0.0
 37
0.0
 40
2035.14203
 41
0.008725
 42
50.0
 43
1029.335233
 44
-1029.335233
 50
0.0
 51
0.0
 71
     0
 72
   100
 73
     1
 74
     3
 75
     0
 76
     0
 77
     0
 78
     0
  0
ENDTAB
  0
TABLE
  2
LTYPE
 70
    10
  0
LTYPE
  2
CONTINUOUS
 70
     0
  3
Solid line
 72
    65
 73
     0
 40
0.0
  0
LTYPE
  2
ACAD_ISO04W100
 70
     0
  3
ISO long-dash dot ____ . ____ . ____ . ____ . _
 72
    65
 73
     4
 40
30.0
 49
24.0
 49
-3.0
 49
0.0
 49
-3.0
  0
LTYPE
  2
ACAD_ISO05W100
 70
     0
  3
ISO long-dash double-dot ____ .. ____ .. ____ . 
 72
    65
 73
     6
 40
33.0
 49
24.0
 49
-3.0
 49
0.0
 49
-3.0
 49
0.0
 49
-3.0
  0
LTYPE
  2
ACAD_ISO06W100
 70
     0
  3
ISO long-dash triple-dot ____ ... ____ ... ____
 72
    65
 73
     8
 40
36.0
 49
24.0
 49
-3.0
 49
0.0
 49
-3.0
 49
0.0
 49
-3.0
 49
0.0
 49
-3.0
  0
LTYPE
  2
ACAD_ISO09W100
 70
     0
  3
ISO long-dash double-short-dash ____ __ __ ____
 72
    65
 73
     6
 40
45.0
 49
24.0
 49
-3.0
 49
6.0
 49
-3.0
 49
6.0
 49
-3.0
  0
LTYPE
  2
CENTER
 70
     0
  3
____ _ ____ _ ____ _ ____
 72
    65
 73
     4
 40
47.4
 49
22.0
 49
-8.5
 49
8.5
 49
-8.5
  0
LTYPE
  2
DASHDOT
 70
     0
  3
_._._._._._._._._._._._._._._._.
 72
    65
 73
     4
 40
70.0
 49
31.0
 49
-13.0
 49
13.0
 49
-13.0
  0
LTYPE
  2
DASHED
 70
     0
  3
__ __ __ __ __ __ __ __ __
 72
    65
 73
     2
 40
25.72
 49
12.86
 49
-12.86
  0
LTYPE
  2
DOT
 70
     0
  3
.........................
 72
    65
 73
     2
 40
10.0
 49
0.0
 49
-10.0
  0
LTYPE
  2
PHANTOM
 70
     0
  3
____ _ _ ____ _ _ _____ _ _ ____
 72
    65
 73
     6
 40
50.5
 49
18.0
 49
-6.5
 49
6.5
 49
-6.5
 49
6.5
 49
-6.5
  0
ENDTAB
  0
TABLE
  2
LAYER
 70
     2
  0
LAYER
  2
0
 70
     0
 62
     7
  6
CONTINUOUS
  0
LAYER
  2
1
 70
     0
 62
     7
  6
CONTINUOUS
  0
ENDTAB
  0
TABLE
  2
STYLE
 70
     1
  0
STYLE
  2
STANDARD
 70
     0
 40
0.0
 41
1.0
 50
0.0
 71
     0
 42
0.2
  3
txt
  4

  0
ENDTAB
  0
TABLE
  2
VIEW
 70
     8
  0
VIEW
  2
TOP
 70
     0
 40
310.35625
 10
-79.0
 20
0.0
 41
517.260417
 11
0.0
 21
0.0
 31
1.0
 12
0.0
 22
0.0
 32
0.0
 42
50.0
 43
461.080916
 44
-461.080916
 50
0.0
 71
     0
  0
VIEW
  2
FRONT
 70
     0
 40
2035.14203
 10
0.0
 20
0.0
 41
517.260417
 11
0.0
 21
-1.0
 31
0.0
 12
0.0
 22
0.0
 32
0.0
 42
50.0
 43
1049.923976
 44
-1049.923976
 50
0.0
 71
     0
  0
VIEW
  2
RIGHT
 70
     0
 40
2035.14203
 10
0.0
 20
0.0
 41
310.35625
 11
1.0
 21
0.0
 31
0.0
 12
0.0
 22
0.0
 32
0.0
 42
50.0
 43
1029.335233
 44
-1029.335233
 50
0.0
 71
     0
  0
VIEW
  2
BACK
 70
     0
 40
2035.14203
 10
0.0
 20
0.0
 41
517.260417
 11
0.0
 21
1.0
 31
0.0
 12
0.0
 22
0.0
 32
0.0
 42
50.0
 43
1049.923976
 44
-1049.923976
 50
0.0
 71
     0
  0
VIEW
  2
BOTTOM
 70
     0
 40
310.35625
 10
0.0
 20
0.0
 41
517.260417
 11
0.0
 21
0.0
 31
-1.0
 12
0.0
 22
0.0
 32
0.0
 42
50.0
 43
1017.571015
 44
-1017.571015
 50
180.0
 71
     0
  0
VIEW
  2
LEFT
 70
     0
 40
2035.14203
 10
0.0
 20
0.0
 41
310.35625
 11
-1.0
 21
0.0
 31
0.0
 12
0.0
 22
0.0
 32
0.0
 42
50.0
 43
1029.335233
 44
-1029.335233
 50
0.0
 71
     0
  0
VIEW
  2
ISOMETRIC
 70
     0
 40
1999.559599
 10
0.0
 20
0.0
 41
585.213357
 11
0.5773502691896258
 21
-0.5773502691896258
 31
0.5773502691896258
 12
0.0
 22
0.0
 32
0.0
 42
50.0
 43
1041.718923
 44
-1041.718923
 50
0.0
 71
     0
  0
VIEW
  2
TRIMETRIC
 70
     0
 40
2110.441744
 10
0.0
 20
0.0
 41
567.218369
 11
0.7188730927569433
 21
-0.5850486126764433
 31
0.3754192287502549
 12
0.0
 22
0.0
 32
0.0
 42
50.0
 43
1092.66887
 44
-1092.66887
 50
0.0
 71
     0
  0
ENDTAB
  0
TABLE
  2
UCS
 70
     0
  0
ENDTAB
  0
TABLE
  2
APPID
 70
     1
  0
APPID
  2
ACAD
 70
     0
  0
ENDTAB
  0
TABLE
  2
DIMSTYLE
 70
     1
  0
DIMSTYLE
  2
STANDARD
 70
     0
  3

  4

  5

  6

  7

 40
1.0
 41
0.18
 42
0.0625
 43
0.38
 44
0.18
 45
0.0
 46
0.0
 47
0.0
 48
0.0
140
0.18
141
0.09
142
0.0
143
25.4
144
1.0
145
0.0
146
1.0
147
0.09
 71
     0
 72
     0
 73
     1
 74
     1
 75
     0
 76
     0
 77
     0
 78
     0
170
     0
171
     2
172
     0
173
     0
174
     0
175
     0
176
     0
177
     0
178
     0
  0
ENDTAB
  0
ENDSEC
  0
SECTION
  2
BLOCKS
  0
BLOCK
  8
0
  2
$MODEL_SPACE
 70
     0
 10
0.0
 20
0.0
 30
0.0
  3
$MODEL_SPACE
  1

  0
ENDBLK
  5
21
  8
0
  0
BLOCK
 67
     1
  8
0
  2
$PAPER_SPACE
 70
     0
 10
0.0
 20
0.0
 30
0.0
  3
$PAPER_SPACE
  1

  0
ENDBLK
  5
1D
 67
     1
  8
0
  0
ENDSEC
  0
SECTION
  2
ENTITIES
  0
LINE
  5
68
  8
1
  6
CONTINUOUS
 62
   163
 10
-69.0
 20
-122.475
 30
0.0
 11
-69.0
 21
-118.975
 31
0.0
  0
LINE
  5
6A
  8
1
  6
CONTINUOUS
 62
   163
 10
-122.0
 20
122.475
 30
0.0
 11
-122.0
 21
118.975
 31
0.0
  0
LINE
  5
6B
  8
1
  6
CONTINUOUS
 62
   150
 10
-145.0
 20
-110.140808
 30
0.0
 11
-145.0
 21
-113.475
 31
0.0
  0
LINE
  5
6C
  8
1
  6
CONTINUOUS
 62
   150
 10
-80.0
 20
56.8625
 30
0.0
 11
-69.0
 21
56.8625
 31
0.0
  0
LINE
  5
6D
  8
1
  6
CONTINUOUS
 62
   150
 10
-90.0
 20
-75.3375
 30
0.0
 11
-90.0
 21
-78.8375
 31
0.0
  0
LINE
  5
6E
  8
1
  6
CONTINUOUS
 62
   150
 10
-69.0
 20
-75.3375
 30
0.0
 11
-69.0
 21
-78.8375
 31
0.0
  0
LINE
  5
6F
  8
1
  6
CONTINUOUS
 62
   150
 10
-59.0
 20
53.3625
 30
0.0
 11
-59.0
 21
56.8625
 31
0.0
  0
LINE
  5
70
  8
1
  6
CONTINUOUS
 62
   150
 10
-11.0
 20
-5.9875
 30
0.0
 11
-11.0
 21
50.1125
 31
0.0
  0
LINE
  5
71
  8
1
  6
CONTINUOUS
 62
   150
 10
-60.451819
 20
-15.9875
 30
0.0
 11
-65.548181
 21
-15.9875
 31
0.0
  0
LINE
  5
72
  8
1
  6
CONTINUOUS
 62
   163
 10
-153.0
 20
-118.975
 30
0.0
 11
-159.0
 21
-118.975
 31
0.0
  0
LINE
  5
73
  8
1
  6
CONTINUOUS
 62
   163
 10
-6.0
 20
-118.975
 30
0.0
 11
-17.0
 21
-118.975
 31
0.0
  0
LINE
  5
74
  8
1
  6
CONTINUOUS
 62
   150
 10
-6.0
 20
-75.3375
 30
0.0
 11
-6.0
 21
-78.8375
 31
0.0
  0
LINE
  5
75
  8
1
  6
CONTINUOUS
 62
   150
 10
-111.0
 20
-12.7375
 30
0.0
 11
-122.0
 21
-12.7375
 31
0.0
  0
LINE
  5
76
  8
1
  6
CONTINUOUS
 62
   150
 10
-101.0
 20
-75.3375
 30
0.0
 11
-90.0
 21
-75.3375
 31
0.0
  0
LINE
  5
77
  8
1
  6
CONTINUOUS
 62
   150
 10
-26.705807
 20
-82.0875
 30
0.0
 11
-99.294193
 21
-82.0875
 31
0.0
  0
LINE
  5
78
  8
1
  6
CONTINUOUS
 62
   163
 10
-90.0
 20
-118.975
 30
0.0
 11
-101.0
 21
-118.975
 31
0.0
  0
LINE
  5
79
  8
1
  6
CONTINUOUS
 62
   163
 10
-48.0
 20
122.475
 30
0.0
 11
-38.0
 21
122.475
 31
0.0
  0
LINE
  5
7A
  8
1
  6
CONTINUOUS
 62
   163
 10
-90.0
 20
118.975
 30
0.0
 11
-90.0
 21
122.475
 31
0.0
  0
LINE
  5
7B
  8
1
  6
CONTINUOUS
 62
   150
 10
-59.0
 20
-9.2375
 30
0.0
 11
-48.0
 21
-9.2375
 31
0.0
  0
LINE
  5
7C
  8
1
  6
CONTINUOUS
 62
   150
 10
-71.670709
 20
-5.9875
 30
0.0
 11
-68.613913
 21
0.0
 31
0.0
  0
LINE
  5
7D
  8
1
  6
CONTINUOUS
 62
   150
 10
-110.522018
 20
-82.0875
 30
0.0
 11
-115.0
 21
-90.858748
 31
0.0
  0
LINE
  5
7E
  8
1
  6
CONTINUOUS
 62
   150
 10
-145.0
 20
110.140808
 30
0.0
 11
-127.0
 21
99.748503
 31
0.0
  0
LINE
  5
7F
  8
1
  6
CONTINUOUS
 62
   163
 10
-38.0
 20
-118.975
 30
0.0
 11
-38.0
 21
-122.475
 31
0.0
  0
LINE
  5
80
  8
1
  6
CONTINUOUS
 62
   150
 10
-38.0
 20
-75.3375
 30
0.0
 11
-27.0
 21
-75.3375
 31
0.0
  0
LINE
  5
81
  8
1
  6
CONTINUOUS
 62
   150
 10
-101.0
 20
-12.7375
 30
0.0
 11
-101.0
 21
-9.2375
 31
0.0
  0
LINE
  5
82
  8
1
  6
CONTINUOUS
 62
   150
 10
-111.0
 20
53.3625
 30
0.0
 11
-122.0
 21
53.3625
 31
0.0
  0
LINE
  5
83
  8
1
  6
CONTINUOUS
 62
   150
 10
-49.223994
 20
-15.9875
 30
0.0
 11
-20.583279
 21
-72.0875
 31
0.0
  0
LINE
  5
84
  8
1
  6
CONTINUOUS
 62
   163
 10
-122.0
 20
-118.975
 30
0.0
 11
-122.0
 21
-122.475
 31
0.0
  0
LINE
  5
85
  8
1
  6
CONTINUOUS
 62
   163
 10
-17.0
 20
122.475
 30
0.0
 11
-17.0
 21
118.975
 31
0.0
  0
LINE
  5
86
  8
1
  6
CONTINUOUS
 62
   163
 10
-159.0
 20
118.975
 30
0.0
 11
-153.0
 21
118.975
 31
0.0
  0
LINE
  5
87
  8
1
  6
CONTINUOUS
 62
   163
 10
-59.0
 20
-122.475
 30
0.0
 11
-69.0
 21
-122.475
 31
0.0
  0
LINE
  5
88
  8
1
  6
CONTINUOUS
 62
   150
 10
-27.0
 20
-12.7375
 30
0.0
 11
-38.0
 21
-12.7375
 31
0.0
  0
LINE
  5
89
  8
1
  6
CONTINUOUS
 62
   163
 10
-158.27206
 20
112.029932
 30
0.0
 11
-159.0
 21
114.029932
 31
0.0
  0
LINE
  5
8A
  8
1
  6
CONTINUOUS
 62
   150
 10
-43.029994
 20
50.1125
 30
0.0
 11
-82.970006
 21
50.1125
 31
0.0
  0
LINE
  5
8B
  8
1
  6
CONTINUOUS
 62
   163
 10
-132.0
 20
118.975
 30
0.0
 11
-132.0
 21
122.475
 31
0.0
  0
LINE
  5
8C
  8
1
  6
CONTINUOUS
 62
   150
 10
-127.0
 20
-106.676706
 30
0.0
 11
-127.0
 21
-99.748503
 31
0.0
  0
LINE
  5
8D
  8
1
  6
CONTINUOUS
 62
   150
 10
-48.0
 20
-78.8375
 30
0.0
 11
-59.0
 21
-78.8375
 31
0.0
  0
LINE
  5
8E
  8
1
  6
CONTINUOUS
 62
   150
 10
-48.0
 20
53.3625
 30
0.0
 11
-59.0
 21
53.3625
 31
0.0
  0
LINE
  5
8F
  8
1
  6
CONTINUOUS
 62
   150
 10
-111.0
 20
-78.8375
 30
0.0
 11
-111.0
 21
-75.3375
 31
0.0
  0
LINE
  5
90
  8
1
  6
CONTINUOUS
 62
   150
 10
-94.188896
 20
-72.0875
 30
0.0
 11
-31.811104
 21
-72.0875
 31
0.0
  0
LINE
  5
91
  8
1
  6
CONTINUOUS
 62
   163
 10
-143.0
 20
-122.475
 30
0.0
 11
-153.0
 21
-122.475
 31
0.0
  0
LINE
  5
92
  8
1
  6
CONTINUOUS
 62
   163
 10
1.0
 20
-122.475
 30
0.0
 11
-6.0
 21
-122.475
 31
0.0
  0
LINE
  5
93
  8
1
  6
CONTINUOUS
 62
   150
 10
-90.0
 20
53.3625
 30
0.0
 11
-101.0
 21
53.3625
 31
0.0
  0
LINE
  5
94
  8
1
  6
CONTINUOUS
 62
   150
 10
-111.0
 20
-9.2375
 30
0.0
 11
-111.0
 21
-12.7375
 31
0.0
  0
LINE
  5
95
  8
1
  6
CONTINUOUS
 62
   150
 10
-17.0
 20
-12.7375
 30
0.0
 11
-17.0
 21
-9.2375
 31
0.0
  0
LINE
  5
96
  8
1
  6
CONTINUOUS
 62
   163
 10
-143.0
 20
122.475
 30
0.0
 11
-143.0
 21
118.975
 31
0.0
  0
LINE
  5
97
  8
1
  6
CONTINUOUS
 62
   150
 10
-112.0
 20
-106.975
 30
0.0
 11
-14.0
 21
-106.975
 31
0.0
  0
LINE
  5
98
  8
1
  6
CONTINUOUS
 62
   163
 10
-80.0
 20
-122.475
 30
0.0
 11
-90.0
 21
-122.475
 31
0.0
  0
LINE
  5
99
  8
1
  6
CONTINUOUS
 62
   163
 10
-59.0
 20
118.975
 30
0.0
 11
-48.0
 21
118.975
 31
0.0
  0
LINE
  5
9A
  8
1
  6
CONTINUOUS
 62
   150
 10
-17.0
 20
56.8625
 30
0.0
 11
-6.0
 21
56.8625
 31
0.0
  0
LINE
  5
9B
  8
1
  6
CONTINUOUS
 62
   150
 10
-90.0
 20
-9.2375
 30
0.0
 11
-90.0
 21
-12.7375
 31
0.0
  0
LINE
  5
9C
  8
1
  6
CONTINUOUS
 62
   163
 10
-101.0
 20
122.475
 30
0.0
 11
-101.0
 21
118.975
 31
0.0
  0
LINE
  5
9D
  8
1
  6
CONTINUOUS
 62
   150
 10
-80.0
 20
-78.8375
 30
0.0
 11
-80.0
 21
-75.3375
 31
0.0
  0
LINE
  5
9E
  8
1
  6
CONTINUOUS
 62
   150
 10
-57.386087
 20
0.0
 30
0.0
 11
-54.329291
 21
-5.9875
 31
0.0
  0
LINE
  5
9F
  8
1
  6
CONTINUOUS
 62
   150
 10
-69.0
 20
56.8625
 30
0.0
 11
-69.0
 21
53.3625
 31
0.0
  0
LINE
  5
A0
  8
1
  6
CONTINUOUS
 62
   163
 10
-158.27206
 20
-112.029932
 30
0.0
 11
-127.0
 21
-93.975
 31
0.0
  0
LINE
  5
A1
  8
1
  6
CONTINUOUS
 62
   163
 10
-27.0
 20
-122.475
 30
0.0
 11
-27.0
 21
-118.975
 31
0.0
  0
LINE
  5
A2
  8
1
  6
CONTINUOUS
 62
   163
 10
-111.0
 20
122.475
 30
0.0
 11
-101.0
 21
122.475
 31
0.0
  0
LINE
  5
A3
  8
1
  6
CONTINUOUS
 62
   163
 10
-69.0
 20
118.975
 30
0.0
 11
-69.0
 21
122.475
 31
0.0
  0
LINE
  5
A4
  8
1
  6
CONTINUOUS
 62
   150
 10
-101.0
 20
-9.2375
 30
0.0
 11
-90.0
 21
-9.2375
 31
0.0
  0
LINE
  5
A5
  8
1
  6
CONTINUOUS
 62
   150
 10
-111.0
 20
56.8625
 30
0.0
 11
-111.0
 21
53.3625
 31
0.0
  0
LINE
  5
A6
  8
1
  6
CONTINUOUS
 62
   150
 10
-11.0
 20
-72.0875
 30
0.0
 11
-11.0
 21
-15.9875
 31
0.0
  0
LINE
  5
A7
  8
1
  6
CONTINUOUS
 62
   163
 10
-111.0
 20
-122.475
 30
0.0
 11
-111.0
 21
-118.975
 31
0.0
  0
LINE
  5
A8
  8
1
  6
CONTINUOUS
 62
   163
 10
-27.0
 20
118.975
 30
0.0
 11
-27.0
 21
122.475
 31
0.0
  0
LINE
  5
A9
  8
1
  6
CONTINUOUS
 62
   163
 10
-80.0
 20
122.475
 30
0.0
 11
-80.0
 21
118.975
 31
0.0
  0
LINE
  5
AA
  8
1
  6
CONTINUOUS
 62
   163
 10
-80.0
 20
118.975
 30
0.0
 11
-69.0
 21
118.975
 31
0.0
  0
LINE
  5
AB
  8
1
  6
CONTINUOUS
 62
   150
 10
-27.0
 20
-9.2375
 30
0.0
 11
-27.0
 21
-12.7375
 31
0.0
  0
LINE
  5
AC
  8
1
  6
CONTINUOUS
 62
   150
 10
-115.0
 20
50.1125
 30
0.0
 11
-115.0
 21
-5.9875
 31
0.0
  0
LINE
  5
AD
  8
1
  6
CONTINUOUS
 62
   150
 10
-99.303128
 20
60.1125
 30
0.0
 11
-115.0
 21
60.1125
 31
0.0
  0
LINE
  5
AE
  8
1
  6
CONTINUOUS
 62
   150
 10
-138.774991
 20
113.475
 30
0.0
 11
-145.0
 21
113.475
 31
0.0
  0
LINE
  5
AF
  8
1
  6
CONTINUOUS
 62
   163
 10
-48.0
 20
-118.975
 30
0.0
 11
-59.0
 21
-118.975
 31
0.0
  0
LINE
  5
B0
  8
1
  6
CONTINUOUS
 62
   150
 10
-48.0
 20
-75.3375
 30
0.0
 11
-48.0
 21
-78.8375
 31
0.0
  0
LINE
  5
B1
  8
1
  6
CONTINUOUS
 62
   150
 10
-69.0
 20
-12.7375
 30
0.0
 11
-80.0
 21
-12.7375
 31
0.0
  0
LINE
  5
B2
  8
1
  6
CONTINUOUS
 62
   150
 10
-122.0
 20
-75.3375
 30
0.0
 11
-122.0
 21
-78.8375
 31
0.0
  0
LINE
  5
B3
  8
1
  6
CONTINUOUS
 62
   150
 10
-11.0
 20
-90.858748
 30
0.0
 11
-15.477982
 21
-82.0875
 31
0.0
  0
LINE
  5
B4
  8
1
  6
CONTINUOUS
 62
   150
 10
-76.776006
 20
-15.9875
 30
0.0
 11
-115.0
 21
-15.9875
 31
0.0
  0
LINE
  5
B5
  8
1
  6
CONTINUOUS
 62
   163
 10
-132.0
 20
-118.975
 30
0.0
 11
-143.0
 21
-118.975
 31
0.0
  0
LINE
  5
B6
  8
1
  6
CONTINUOUS
 62
   163
 10
-6.0
 20
122.475
 30
0.0
 11
1.0
 21
122.475
 31
0.0
  0
LINE
  5
B7
  8
1
  6
CONTINUOUS
 62
   150
 10
-90.0
 20
56.8625
 30
0.0
 11
-90.0
 21
53.3625
 31
0.0
  0
LINE
  5
B8
  8
1
  6
CONTINUOUS
 62
   150
 10
-17.0
 20
-9.2375
 30
0.0
 11
-6.0
 21
-9.2375
 31
0.0
  0
LINE
  5
B9
  8
1
  6
CONTINUOUS
 62
   163
 10
-122.0
 20
118.975
 30
0.0
 11
-111.0
 21
118.975
 31
0.0
  0
LINE
  5
BA
  8
1
  6
CONTINUOUS
 62
   150
 10
-11.0
 20
60.1125
 30
0.0
 11
-11.0
 21
90.858748
 31
0.0
  0
LINE
  5
BB
  8
1
  6
CONTINUOUS
 62
   163
 10
-69.0
 20
-118.975
 30
0.0
 11
-80.0
 21
-118.975
 31
0.0
  0
LINE
  5
BC
  8
1
  6
CONTINUOUS
 62
   163
 10
-69.0
 20
122.475
 30
0.0
 11
-59.0
 21
122.475
 31
0.0
  0
LINE
  5
BD
  8
1
  6
CONTINUOUS
 62
   150
 10
-145.0
 20
-113.475
 30
0.0
 11
-138.774991
 21
-113.475
 31
0.0
  0
LINE
  5
BE
  8
1
  6
CONTINUOUS
 62
   150
 10
-80.0
 20
-75.3375
 30
0.0
 11
-69.0
 21
-75.3375
 31
0.0
  0
LINE
  5
BF
  8
1
  6
CONTINUOUS
 62
   163
 10
-101.0
 20
-122.475
 30
0.0
 11
-111.0
 21
-122.475
 31
0.0
  0
LINE
  5
C0
  8
1
  6
CONTINUOUS
 62
   150
 10
-11.0
 20
50.1125
 30
0.0
 11
-31.802169
 21
50.1125
 31
0.0
  0
LINE
  5
C1
  8
1
  6
CONTINUOUS
 62
   150
 10
-27.0
 20
53.3625
 30
0.0
 11
-38.0
 21
53.3625
 31
0.0
  0
LINE
  5
C2
  8
1
  6
CONTINUOUS
 62
   150
 10
-65.548181
 20
-15.9875
 30
0.0
 11
-94.188896
 21
-72.0875
 31
0.0
  0
LINE
  5
C3
  8
1
  6
CONTINUOUS
 62
   163
 10
-159.0
 20
-118.975
 30
0.0
 11
-159.0
 21
-114.029932
 31
0.0
  0
LINE
  5
C4
  8
1
  6
CONTINUOUS
 62
   163
 10
-17.0
 20
-118.975
 30
0.0
 11
-17.0
 21
-122.475
 31
0.0
  0
LINE
  5
C5
  8
1
  6
CONTINUOUS
 62
   163
 10
-159.0
 20
114.029932
 30
0.0
 11
-159.0
 21
118.975
 31
0.0
  0
LINE
  5
C6
  8
1
  6
CONTINUOUS
 62
   150
 10
-122.0
 20
-12.7375
 30
0.0
 11
-122.0
 21
-9.2375
 31
0.0
  0
LINE
  5
C7
  8
1
  6
CONTINUOUS
 62
   150
 10
-90.0
 20
-78.8375
 30
0.0
 11
-101.0
 21
-78.8375
 31
0.0
  0
LINE
  5
C8
  8
1
  6
CONTINUOUS
 62
   150
 10
-99.294193
 20
-82.0875
 30
0.0
 11
-112.0
 21
-106.975
 31
0.0
  0
LINE
  5
C9
  8
1
  6
CONTINUOUS
 62
   163
 10
-101.0
 20
-118.975
 30
0.0
 11
-101.0
 21
-122.475
 31
0.0
  0
LINE
  5
CA
  8
1
  6
CONTINUOUS
 62
   163
 10
-38.0
 20
122.475
 30
0.0
 11
-38.0
 21
118.975
 31
0.0
  0
LINE
  5
CB
  8
1
  6
CONTINUOUS
 62
   163
 10
-90.0
 20
122.475
 30
0.0
 11
-80.0
 21
122.475
 31
0.0
  0
LINE
  5
CC
  8
1
  6
CONTINUOUS
 62
   150
 10
-48.0
 20
-12.7375
 30
0.0
 11
-59.0
 21
-12.7375
 31
0.0
  0
LINE
  5
CD
  8
1
  6
CONTINUOUS
 62
   150
 10
-68.613913
 20
0.0
 30
0.0
 11
-94.197831
 21
50.1125
 31
0.0
  0
LINE
  5
CE
  8
1
  6
CONTINUOUS
 62
   163
 10
-127.0
 20
-93.975
 30
0.0
 11
-127.0
 21
93.975
 31
0.0
  0
LINE
  5
CF
  8
1
  6
CONTINUOUS
 62
   150
 10
-115.0
 20
-90.858748
 30
0.0
 11
-115.0
 21
-82.0875
 31
0.0
  0
LINE
  5
D0
  8
1
  6
CONTINUOUS
 62
   150
 10
-127.0
 20
99.748503
 30
0.0
 11
-127.0
 21
106.676706
 31
0.0
  0
LINE
  5
D1
  8
1
  6
CONTINUOUS
 62
   163
 10
-38.0
 20
-122.475
 30
0.0
 11
-48.0
 21
-122.475
 31
0.0
  0
LINE
  5
D2
  8
1
  6
CONTINUOUS
 62
   150
 10
-80.0
 20
-9.2375
 30
0.0
 11
-69.0
 21
-9.2375
 31
0.0
  0
LINE
  5
D3
  8
1
  6
CONTINUOUS
 62
   150
 10
-27.0
 20
-78.8375
 30
0.0
 11
-38.0
 21
-78.8375
 31
0.0
  0
LINE
  5
D4
  8
1
  6
CONTINUOUS
 62
   150
 10
-69.0
 20
-9.2375
 30
0.0
 11
-69.0
 21
-12.7375
 31
0.0
  0
LINE
  5
D5
  8
1
  6
CONTINUOUS
 62
   150
 10
-122.0
 20
53.3625
 30
0.0
 11
-122.0
 21
56.8625
 31
0.0
  0
LINE
  5
D6
  8
1
  6
CONTINUOUS
 62
   150
 10
-115.0
 20
-72.0875
 30
0.0
 11
-105.416721
 21
-72.0875
 31
0.0
  0
LINE
  5
D7
  8
1
  6
CONTINUOUS
 62
   163
 10
-122.0
 20
-122.475
 30
0.0
 11
-132.0
 21
-122.475
 31
0.0
  0
LINE
  5
D8
  8
1
  6
CONTINUOUS
 62
   163
 10
-17.0
 20
118.975
 30
0.0
 11
-6.0
 21
118.975
 31
0.0
  0
LINE
  5
D9
  8
1
  6
CONTINUOUS
 62
   150
 10
-17.0
 20
53.3625
 30
0.0
 11
-17.0
 21
56.8625
 31
0.0
  0
LINE
  5
DA
  8
1
  6
CONTINUOUS
 62
   150
 10
-38.0
 20
-12.7375
 30
0.0
 11
-38.0
 21
-9.2375
 31
0.0
  0
LINE
  5
DB
  8
1
  6
CONTINUOUS
 62
   150
 10
-82.970006
 20
50.1125
 30
0.0
 11
-63.0
 21
10.996251
 31
0.0
  0
LINE
  5
DC
  8
1
  6
CONTINUOUS
 62
   163
 10
-132.0
 20
122.475
 30
0.0
 11
-122.0
 21
122.475
 31
0.0
  0
LINE
  5
DD
  8
1
  6
CONTINUOUS
 62
   150
 10
-127.0
 20
-99.748503
 30
0.0
 11
-145.0
 21
-110.140808
 31
0.0
  0
LINE
  5
DE
  8
1
  6
CONTINUOUS
 62
   150
 10
-38.0
 20
53.3625
 30
0.0
 11
-38.0
 21
56.8625
 31
0.0
  0
LINE
  5
DF
  8
1
  6
CONTINUOUS
 62
   150
 10
-17.0
 20
-75.3375
 30
0.0
 11
-6.0
 21
-75.3375
 31
0.0
  0
LINE
  5
E0
  8
1
  6
CONTINUOUS
 62
   150
 10
-59.0
 20
-78.8375
 30
0.0
 11
-59.0
 21
-75.3375
 31
0.0
  0
LINE
  5
E1
  8
1
  6
CONTINUOUS
 62
   150
 10
-38.0
 20
56.8625
 30
0.0
 11
-27.0
 21
56.8625
 31
0.0
  0
LINE
  5
E2
  8
1
  6
CONTINUOUS
 62
   150
 10
-54.329291
 20
-5.9875
 30
0.0
 11
-11.0
 21
-5.9875
 31
0.0
  0
LINE
  5
E3
  8
1
  6
CONTINUOUS
 62
   150
 10
-31.811104
 20
-72.0875
 30
0.0
 11
-60.451819
 21
-15.9875
 31
0.0
  0
LINE
  5
E4
  8
1
  6
CONTINUOUS
 62
   163
 10
-153.0
 20
-122.475
 30
0.0
 11
-153.0
 21
-118.975
 31
0.0
  0
LINE
  5
E5
  8
1
  6
CONTINUOUS
 62
   163
 10
-143.0
 20
118.975
 30
0.0
 11
-132.0
 21
118.975
 31
0.0
  0
LINE
  5
E6
  8
1
  6
CONTINUOUS
 62
   150
 10
-101.0
 20
53.3625
 30
0.0
 11
-101.0
 21
56.8625
 31
0.0
  0
LINE
  5
E7
  8
1
  6
CONTINUOUS
 62
   150
 10
-122.0
 20
-9.2375
 30
0.0
 11
-111.0
 21
-9.2375
 31
0.0
  0
LINE
  5
E8
  8
1
  6
CONTINUOUS
 62
   150
 10
-48.0
 20
56.8625
 30
0.0
 11
-48.0
 21
53.3625
 31
0.0
  0
LINE
  5
E9
  8
1
  6
CONTINUOUS
 62
   150
 10
-6.0
 20
-78.8375
 30
0.0
 11
-17.0
 21
-78.8375
 31
0.0
  0
LINE
  5
EA
  8
1
  6
CONTINUOUS
 62
   150
 10
-14.0
 20
-106.975
 30
0.0
 11
-26.705807
 21
-82.0875
 31
0.0
  0
LINE
  5
EB
  8
1
  6
CONTINUOUS
 62
   163
 10
-90.0
 20
-122.475
 30
0.0
 11
-90.0
 21
-118.975
 31
0.0
  0
LINE
  5
EC
  8
1
  6
CONTINUOUS
 62
   163
 10
-48.0
 20
118.975
 30
0.0
 11
-48.0
 21
122.475
 31
0.0
  0
LINE
  5
ED
  8
1
  6
CONTINUOUS
 62
   150
 10
-6.0
 20
53.3625
 30
0.0
 11
-17.0
 21
53.3625
 31
0.0
  0
LINE
  5
EE
  8
1
  6
CONTINUOUS
 62
   163
 10
-101.0
 20
118.975
 30
0.0
 11
-90.0
 21
118.975
 31
0.0
  0
LINE
  5
EF
  8
1
  6
CONTINUOUS
 62
   150
 10
-48.0
 20
-9.2375
 30
0.0
 11
-48.0
 21
-12.7375
 31
0.0
  0
LINE
  5
F0
  8
1
  6
CONTINUOUS
 62
   150
 10
-115.0
 20
-5.9875
 30
0.0
 11
-71.670709
 21
-5.9875
 31
0.0
  0
LINE
  5
F1
  8
1
  6
CONTINUOUS
 62
   150
 10
-115.0
 20
60.1125
 30
0.0
 11
-115.0
 21
90.858748
 31
0.0
  0
LINE
  5
F2
  8
1
  6
CONTINUOUS
 62
   150
 10
-15.477982
 20
-82.0875
 30
0.0
 11
-11.0
 21
-82.0875
 31
0.0
  0
LINE
  5
F3
  8
1
  6
CONTINUOUS
 62
   150
 10
-145.0
 20
113.475
 30
0.0
 11
-145.0
 21
110.140808
 31
0.0
  0
LINE
  5
F4
  8
1
  6
CONTINUOUS
 62
   163
 10
-27.0
 20
-118.975
 30
0.0
 11
-38.0
 21
-118.975
 31
0.0
  0
LINE
  5
F5
  8
1
  6
CONTINUOUS
 62
   150
 10
-17.0
 20
-78.8375
 30
0.0
 11
-17.0
 21
-75.3375
 31
0.0
  0
LINE
  5
F6
  8
1
  6
CONTINUOUS
 62
   150
 10
-69.0
 20
53.3625
 30
0.0
 11
-80.0
 21
53.3625
 31
0.0
  0
LINE
  5
F7
  8
1
  6
CONTINUOUS
 62
   150
 10
-90.0
 20
-12.7375
 30
0.0
 11
-101.0
 21
-12.7375
 31
0.0
  0
LINE
  5
F8
  8
1
  6
CONTINUOUS
 62
   150
 10
-122.0
 20
56.8625
 30
0.0
 11
-111.0
 21
56.8625
 31
0.0
  0
LINE
  5
F9
  8
1
  6
CONTINUOUS
 62
   150
 10
-11.0
 20
-15.9875
 30
0.0
 11
-49.223994
 21
-15.9875
 31
0.0
  0
LINE
  5
FA
  8
1
  6
CONTINUOUS
 62
   163
 10
-153.0
 20
118.975
 30
0.0
 11
-153.0
 21
122.475
 31
0.0
  0
LINE
  5
FB
  8
1
  6
CONTINUOUS
 62
   163
 10
-27.0
 20
122.475
 30
0.0
 11
-17.0
 21
122.475
 31
0.0
  0
LINE
  5
FC
  8
1
  6
CONTINUOUS
 62
   163
 10
-59.0
 20
-118.975
 30
0.0
 11
-59.0
 21
-122.475
 31
0.0
  0
LINE
  5
FD
  8
1
  6
CONTINUOUS
 62
   150
 10
-38.0
 20
-9.2375
 30
0.0
 11
-27.0
 21
-9.2375
 31
0.0
  0
LINE
  5
FE
  8
1
  6
CONTINUOUS
 62
   150
 10
-63.0
 20
10.996251
 30
0.0
 11
-43.029994
 21
50.1125
 31
0.0
  0
LINE
  5
FF
  8
1
  6
CONTINUOUS
 62
   150
 10
-27.0
 20
-75.3375
 30
0.0
 11
-27.0
 21
-78.8375
 31
0.0
  0
LINE
  5
100
  8
1
  6
CONTINUOUS
 62
   150
 10
-27.0
 20
56.8625
 30
0.0
 11
-27.0
 21
53.3625
 31
0.0
  0
LINE
  5
101
  8
1
  6
CONTINUOUS
 62
   150
 10
-138.774991
 20
-113.475
 30
0.0
 11
-127.0
 21
-106.676706
 31
0.0
  0
LINE
  5
102
  8
1
  6
CONTINUOUS
 62
   150
 10
-59.0
 20
-75.3375
 30
0.0
 11
-48.0
 21
-75.3375
 31
0.0
  0
LINE
  5
103
  8
1
  6
CONTINUOUS
 62
   150
 10
-80.0
 20
-12.7375
 30
0.0
 11
-80.0
 21
-9.2375
 31
0.0
  0
LINE
  5
104
  8
1
  6
CONTINUOUS
 62
   150
 10
-122.0
 20
-78.8375
 30
0.0
 11
-111.0
 21
-78.8375
 31
0.0
  0
LINE
  5
105
  8
1
  6
CONTINUOUS
 62
   150
 10
-88.075303
 20
60.1125
 30
0.0
 11
-37.924697
 21
60.1125
 31
0.0
  0
LINE
  5
106
  8
1
  6
CONTINUOUS
 62
   150
 10
-115.0
 20
-15.9875
 30
0.0
 11
-115.0
 21
-72.0875
 31
0.0
  0
LINE
  5
107
  8
1
  6
CONTINUOUS
 62
   163
 10
-143.0
 20
-118.975
 30
0.0
 11
-143.0
 21
-122.475
 31
0.0
  0
LINE
  5
108
  8
1
  6
CONTINUOUS
 62
   163
 10
1.0
 20
122.475
 30
0.0
 11
1.0
 21
-122.475
 31
0.0
  0
LINE
  5
109
  8
1
  6
CONTINUOUS
 62
   150
 10
-101.0
 20
56.8625
 30
0.0
 11
-90.0
 21
56.8625
 31
0.0
  0
LINE
  5
10A
  8
1
  6
CONTINUOUS
 62
   150
 10
-6.0
 20
-12.7375
 30
0.0
 11
-17.0
 21
-12.7375
 31
0.0
  0
LINE
  5
10B
  8
1
  6
CONTINUOUS
 62
   150
 10
-11.0
 20
90.858748
 30
0.0
 11
-26.696872
 21
60.1125
 31
0.0
  0
LINE
  5
10C
  8
1
  6
CONTINUOUS
 62
   163
 10
-80.0
 20
-118.975
 30
0.0
 11
-80.0
 21
-122.475
 31
0.0
  0
LINE
  5
10D
  8
1
  6
CONTINUOUS
 62
   163
 10
-111.0
 20
118.975
 30
0.0
 11
-111.0
 21
122.475
 31
0.0
  0
LINE
  5
10E
  8
1
  6
CONTINUOUS
 62
   150
 10
-6.0
 20
56.8625
 30
0.0
 11
-6.0
 21
53.3625
 31
0.0
  0
LINE
  5
10F
  8
1
  6
CONTINUOUS
 62
   150
 10
-37.924697
 20
60.1125
 30
0.0
 11
-14.0
 21
106.975
 31
0.0
  0
LINE
  5
110
  8
1
  6
CONTINUOUS
 62
   150
 10
-69.0
 20
-78.8375
 30
0.0
 11
-80.0
 21
-78.8375
 31
0.0
  0
LINE
  5
111
  8
1
  6
CONTINUOUS
 62
   150
 10
-31.802169
 20
50.1125
 30
0.0
 11
-57.386087
 21
0.0
 31
0.0
  0
LINE
  5
112
  8
1
  6
CONTINUOUS
 62
   150
 10
-11.0
 20
-82.0875
 30
0.0
 11
-11.0
 21
-90.858748
 31
0.0
  0
LINE
  5
113
  8
1
  6
CONTINUOUS
 62
   163
 10
-159.0
 20
-114.029932
 30
0.0
 11
-158.27206
 21
-112.029932
 31
0.0
  0
LINE
  5
114
  8
1
  6
CONTINUOUS
 62
   163
 10
-59.0
 20
122.475
 30
0.0
 11
-59.0
 21
118.975
 31
0.0
  0
LINE
  5
115
  8
1
  6
CONTINUOUS
 62
   150
 10
-115.0
 20
90.858748
 30
0.0
 11
-99.303128
 21
60.1125
 31
0.0
  0
LINE
  5
116
  8
1
  6
CONTINUOUS
 62
   163
 10
-153.0
 20
122.475
 30
0.0
 11
-143.0
 21
122.475
 31
0.0
  0
LINE
  5
117
  8
1
  6
CONTINUOUS
 62
   150
 10
-59.0
 20
56.8625
 30
0.0
 11
-48.0
 21
56.8625
 31
0.0
  0
LINE
  5
118
  8
1
  6
CONTINUOUS
 62
   150
 10
-101.0
 20
-78.8375
 30
0.0
 11
-101.0
 21
-75.3375
 31
0.0
  0
LINE
  5
119
  8
1
  6
CONTINUOUS
 62
   150
 10
-14.0
 20
106.975
 30
0.0
 11
-112.0
 21
106.975
 31
0.0
  0
LINE
  5
11A
  8
1
  6
CONTINUOUS
 62
   163
 10
-38.0
 20
118.975
 30
0.0
 11
-27.0
 21
118.975
 31
0.0
  0
LINE
  5
11B
  8
1
  6
CONTINUOUS
 62
   163
 10
-6.0
 20
-122.475
 30
0.0
 11
-6.0
 21
-118.975
 31
0.0
  0
LINE
  5
11C
  8
1
  6
CONTINUOUS
 62
   150
 10
-59.0
 20
-12.7375
 30
0.0
 11
-59.0
 21
-9.2375
 31
0.0
  0
LINE
  5
11D
  8
1
  6
CONTINUOUS
 62
   150
 10
-94.197831
 20
50.1125
 30
0.0
 11
-115.0
 21
50.1125
 31
0.0
  0
LINE
  5
11E
  8
1
  6
CONTINUOUS
 62
   163
 10
-111.0
 20
-118.975
 30
0.0
 11
-122.0
 21
-118.975
 31
0.0
  0
LINE
  5
11F
  8
1
  6
CONTINUOUS
 62
   150
 10
-115.0
 20
-82.0875
 30
0.0
 11
-110.522018
 21
-82.0875
 31
0.0
  0
LINE
  5
120
  8
1
  6
CONTINUOUS
 62
   150
 10
-127.0
 20
106.676706
 30
0.0
 11
-138.774991
 21
113.475
 31
0.0
  0
LINE
  5
121
  8
1
  6
CONTINUOUS
 62
   163
 10
-48.0
 20
-122.475
 30
0.0
 11
-48.0
 21
-118.975
 31
0.0
  0
LINE
  5
122
  8
1
  6
CONTINUOUS
 62
   150
 10
-112.0
 20
106.975
 30
0.0
 11
-88.075303
 21
60.1125
 31
0.0
  0
LINE
  5
123
  8
1
  6
CONTINUOUS
 62
   150
 10
-38.0
 20
-78.8375
 30
0.0
 11
-38.0
 21
-75.3375
 31
0.0
  0
LINE
  5
124
  8
1
  6
CONTINUOUS
 62
   163
 10
-127.0
 20
93.975
 30
0.0
 11
-158.27206
 21
112.029932
 31
0.0
  0
LINE
  5
125
  8
1
  6
CONTINUOUS
 62
   150
 10
-111.0
 20
-75.3375
 30
0.0
 11
-122.0
 21
-75.3375
 31
0.0
  0
LINE
  5
126
  8
1
  6
CONTINUOUS
 62
   150
 10
-105.416721
 20
-72.0875
 30
0.0
 11
-76.776006
 21
-15.9875
 31
0.0
  0
LINE
  5
127
  8
1
  6
CONTINUOUS
 62
   163
 10
-132.0
 20
-122.475
 30
0.0
 11
-132.0
 21
-118.975
 31
0.0
  0
LINE
  5
128
  8
1
  6
CONTINUOUS
 62
   163
 10
-6.0
 20
118.975
 30
0.0
 11
-6.0
 21
122.475
 31
0.0
  0
LINE
  5
129
  8
1
  6
CONTINUOUS
 62
   150
 10
-80.0
 20
53.3625
 30
0.0
 11
-80.0
 21
56.8625
 31
0.0
  0
LINE
  5
12A
  8
1
  6
CONTINUOUS
 62
   163
 10
-17.0
 20
-122.475
 30
0.0
 11
-27.0
 21
-122.475
 31
0.0
  0
LINE
  5
12B
  8
1
  6
CONTINUOUS
 62
   150
 10
-6.0
 20
-9.2375
 30
0.0
 11
-6.0
 21
-12.7375
 31
0.0
  0
LINE
  5
12C
  8
1
  6
CONTINUOUS
 62
   150
 10
-26.696872
 20
60.1125
 30
0.0
 11
-11.0
 21
60.1125
 31
0.0
  0
LINE
  5
12D
  8
1
  6
CONTINUOUS
 62
   150
 10
-20.583279
 20
-72.0875
 30
0.0
 11
-11.0
 21
-72.0875
 31
0.0
  0
ENDSEC
  0
EOF
