<?xml version="1.0" encoding="UTF-8" standalone="no"?>
<svg
   version="1.2"
   viewBox="0 0 771.57831 716.15314"
   width="771.57831"
   height="716.15314"
   id="svg61"
   sodipodi:docname="CTM Logo schwarz.svg"
   inkscape:version="1.4.2 (f4327f4, 2025-05-13)"
   xmlns:inkscape="http://www.inkscape.org/namespaces/inkscape"
   xmlns:sodipodi="http://sodipodi.sourceforge.net/DTD/sodipodi-0.dtd"
   xmlns="http://www.w3.org/2000/svg"
   xmlns:svg="http://www.w3.org/2000/svg">
  <sodipodi:namedview
     id="namedview61"
     pagecolor="#ffffff"
     bordercolor="#000000"
     borderopacity="0.25"
     inkscape:showpageshadow="2"
     inkscape:pageopacity="0.0"
     inkscape:pagecheckerboard="0"
     inkscape:deskcolor="#d1d1d1"
     inkscape:zoom="1.1484389"
     inkscape:cx="412.2988"
     inkscape:cy="469.76812"
     inkscape:window-width="2880"
     inkscape:window-height="1694"
     inkscape:window-x="-11"
     inkscape:window-y="-11"
     inkscape:window-maximized="1"
     inkscape:current-layer="svg61" />
  <defs
     id="defs1">
    <clipPath
       clipPathUnits="userSpaceOnUse"
       id="cp1">
      <path
         d="M -1405.31,-804.69 H 2273.54 V 1673.29 H -1405.31 Z"
         id="path1" />
    </clipPath>
  </defs>
  <style
     id="style1">
		.s0 { fill: #ffffff } 
		.s1 { fill: #7caf67 } 
		.s2 { fill: #7caf67;stroke: #ffffff;stroke-miterlimit:10;stroke-width: .4 } 
		.s3 { fill: #84b768 } 
		.s4 { fill: #84b768;stroke: #84b768;stroke-miterlimit:10;stroke-width: 2 } 
	</style>
  <g
     id="Ebene 2"
     transform="translate(-29.883578,-103.47687)"
     style="fill:#000000;fill-opacity:1;stroke:#000000;stroke-opacity:1">
    <g
       id="&lt;Clip Group&gt;"
       clip-path="url(#cp1)"
       style="fill:#000000;fill-opacity:1;stroke:#000000;stroke-opacity:1">
      <path
         id="&lt;Path&gt;"
         class="s1"
         d="m 145.79,800.87 c -1.94,7.28 -6.35,9.73 -12.64,9.73 -9.65,0 -13.21,-6.53 -13.21,-12.83 0,-7.18 4.4,-13.11 13.16,-13.11 6.49,0 11.63,2.92 12.6,8.94 h -4.91 c -0.56,-3.15 -3.06,-5.05 -7.37,-5.05 -5.93,0 -8.57,3.9 -8.57,9.08 0,5.19 2.64,9.08 8.57,9.08 4.17,0 6.44,-1.8 7.46,-5.84 z"
         style="fill:#000000;fill-opacity:1;stroke:#000000;stroke-opacity:1" />
      <path
         id="&lt;Compound Path&gt;"
         fill-rule="evenodd"
         class="s1"
         d="m 151.56,793.08 c 0.6,-6.06 4.77,-8.43 12.05,-8.43 4.95,0 11.16,1.26 11.16,6.91 v 13.07 c 0,1.43 0.65,2.08 2.09,2.08 0.51,0 1.16,-0.08 1.62,-0.18 v 3.24 c -1.11,0.19 -2.5,0.28 -3.61,0.28 -2.32,0 -3.85,-0.65 -4.18,-3.38 -1.85,2.5 -6.39,3.94 -10.33,3.94 -8.06,0 -9.87,-4.18 -9.87,-7.33 0,-4.44 2.64,-6.71 10.43,-7.55 l 5.28,-0.55 c 2.6,-0.28 4.22,-0.75 4.22,-2.93 0,-3.33 -3.25,-3.98 -7,-3.98 -3.99,0 -7.37,1.07 -7.51,4.81 z m 18.86,3.99 c -0.7,0.79 -1.95,1.12 -4.54,1.45 l -5.23,0.64 c -3.62,0.46 -5.52,1.43 -5.52,3.98 0,2.27 2.27,3.85 5.65,3.85 5.24,0 9.64,-2.78 9.64,-6.81 z"
         style="fill:#000000;fill-opacity:1;stroke:#000000;stroke-opacity:1" />
      <path
         id="path2"
         class="s1"
         d="m 219.93,794.34 c 0,-4.45 -2.83,-5.79 -5.84,-5.79 -4.22,0 -7.97,1.99 -7.97,6.53 v 14.7 h -4.64 v -15.44 c 0,-4.45 -2.82,-5.79 -5.83,-5.79 -4.22,0 -7.98,2.46 -7.98,7.24 v 13.99 h -4.63 v -24.29 h 4.63 v 3.66 h 0.1 c 2.18,-3.38 6.02,-4.49 9.5,-4.49 3.15,0 6.3,1.3 8.25,4.49 2.22,-2.78 5.19,-4.49 9.82,-4.49 2.46,0 9.22,1.16 9.22,8.58 v 16.54 h -4.63 z"
         style="fill:#000000;fill-opacity:1;stroke:#000000;stroke-opacity:1" />
      <path
         id="path3"
         fill-rule="evenodd"
         class="s1"
         d="m 231.63,785.49 h 4.64 v 3.38 h 0.09 c 1.81,-2.54 5.65,-3.93 9.22,-3.93 7.33,0 13.21,4.68 13.21,12.83 0,8.16 -5.88,12.84 -13.21,12.84 -3.62,0 -7.36,-1.3 -9.22,-3.95 h -0.09 v 12.47 h -4.64 z m 13.35,3.34 c -6.3,0 -8.99,4.36 -8.99,8.94 0,5.56 3.57,8.95 8.99,8.95 5.38,0 8.89,-3.39 8.89,-8.95 0,-4.58 -2.64,-8.94 -8.89,-8.94 z"
         style="fill:#000000;fill-opacity:1;stroke:#000000;stroke-opacity:1" />
      <path
         id="path4"
         class="s1"
         d="m 289.2,809.77 h -4.63 v -3.66 h -0.1 c -2.17,3.38 -6.02,4.49 -9.49,4.49 -5.84,0 -10.2,-2.5 -10.2,-8.56 v -16.55 h 4.64 v 15.61 c 0,3.57 2.22,5.61 7.18,5.61 4.22,0 7.97,-2.45 7.97,-7.23 v -13.99 h 4.63 z"
         style="fill:#000000;fill-opacity:1;stroke:#000000;stroke-opacity:1" />
      <path
         id="path5"
         class="s1"
         d="m 299.51,802.12 c 0,2.19 1.76,4.86 7.65,4.86 5.97,0 7.41,-2.08 7.41,-3.79 0,-1.71 -0.88,-2.73 -4.59,-3.24 l -7.65,-1.02 c -3.47,-0.46 -6.57,-2.69 -6.57,-6.43 0,-4.92 4.26,-7.84 11.07,-7.84 7.97,0 11.45,3.43 11.86,8.16 h -4.63 c -0.14,-2.47 -2.45,-4.55 -7.27,-4.55 -2.97,0 -6.4,0.84 -6.4,3.71 0,1.62 0.74,2.55 4.03,3.02 l 6.58,0.87 c 6.12,0.83 8.48,3.01 8.48,6.44 0,5.65 -4.77,8.29 -12.18,8.29 -5.56,0 -11.91,-1.43 -12.42,-8.48 z"
         style="fill:#000000;fill-opacity:1;stroke:#000000;stroke-opacity:1" />
      <path
         id="path6"
         class="s1"
         d="m 344.07,778.03 h 4.63 v 7.46 h 6.96 v 3.62 h -6.96 v 14.96 c 0,1.95 1.39,2.65 3.75,2.65 1.08,0 2.14,-0.15 3.21,-0.32 v 3.89 c -1.58,0.27 -3.3,0.32 -5.19,0.32 -4.54,0 -6.4,-2.23 -6.4,-5.75 v -15.75 h -5 v -3.62 h 5 z"
         style="fill:#000000;fill-opacity:1;stroke:#000000;stroke-opacity:1" />
      <path
         id="path7"
         class="s1"
         d="m 360.58,776.41 h 4.63 v 5.1 h -4.63 z m 0,9.08 h 4.63 v 24.28 h -4.63 z"
         style="fill:#000000;fill-opacity:1;stroke:#000000;stroke-opacity:1" />
      <path
         id="path8"
         class="s1"
         d="m 372.26,785.49 h 4.63 v 4.45 h 0.1 c 2.18,-3.85 5.28,-5.29 8.34,-5.29 1.16,0 1.76,0.06 2.64,0.28 v 5.01 c -1.16,-0.28 -2.04,-0.46 -3.29,-0.46 -4.59,0 -7.79,2.68 -7.79,7.96 v 12.33 h -4.63 z"
         style="fill:#000000;fill-opacity:1;stroke:#000000;stroke-opacity:1" />
      <path
         id="path9"
         fill-rule="evenodd"
         class="s1"
         d="m 405.54,784.65 c 9.46,0 14.09,5.99 14.09,12.98 0,7 -4.63,12.98 -14.09,12.98 -9.45,0 -14.08,-5.98 -14.08,-12.98 0,-6.99 4.63,-12.98 14.08,-12.98 z m 0,3.9 c -6.71,0 -9.18,4.68 -9.18,9.08 0,4.41 2.47,9.09 9.18,9.09 6.72,0 9.18,-4.68 9.18,-9.09 0,-4.4 -2.46,-9.08 -9.18,-9.08 z"
         style="fill:#000000;fill-opacity:1;stroke:#000000;stroke-opacity:1" />
      <path
         id="path10"
         class="s1"
         d="m 425.63,776.41 h 4.63 v 33.37 h -4.63 z"
         style="fill:#000000;fill-opacity:1;stroke:#000000;stroke-opacity:1" />
      <path
         id="path11"
         class="s1"
         d="m 491.08,794.34 c 0,-4.45 -2.83,-5.79 -5.84,-5.79 -4.22,0 -7.98,1.99 -7.98,6.53 v 14.7 h -4.63 v -15.44 c 0,-4.45 -2.82,-5.79 -5.83,-5.79 -4.22,0 -7.97,2.46 -7.97,7.24 v 13.99 h -4.64 v -24.29 h 4.64 v 3.66 h 0.09 c 2.18,-3.38 6.03,-4.49 9.5,-4.49 3.14,0 6.29,1.3 8.24,4.49 2.23,-2.78 5.2,-4.49 9.83,-4.49 2.45,0 9.22,1.16 9.22,8.58 v 16.54 h -4.63 z"
         style="fill:#000000;fill-opacity:1;stroke:#000000;stroke-opacity:1" />
      <path
         id="path12"
         fill-rule="evenodd"
         class="s1"
         d="m 515.81,784.65 c 9.45,0 14.08,5.99 14.08,12.98 0,7 -4.63,12.98 -14.08,12.98 -9.46,0 -14.09,-5.98 -14.09,-12.98 0,-6.99 4.63,-12.98 14.09,-12.98 z m 0,3.9 c -6.72,0 -9.19,4.68 -9.19,9.08 0,4.41 2.47,9.09 9.19,9.09 6.71,0 9.17,-4.68 9.17,-9.09 0,-4.4 -2.46,-9.08 -9.17,-9.08 z"
         style="fill:#000000;fill-opacity:1;stroke:#000000;stroke-opacity:1" />
      <path
         id="path13"
         class="s1"
         d="m 537.93,778.03 h 4.63 v 7.46 h 6.95 v 3.62 h -6.95 v 14.96 c 0,1.95 1.39,2.65 3.75,2.65 1.07,0 2.13,-0.15 3.2,-0.32 v 3.89 c -1.57,0.27 -3.29,0.32 -5.19,0.32 -4.54,0 -6.39,-2.23 -6.39,-5.75 v -15.75 h -5 v -3.62 h 5 z"
         style="fill:#000000;fill-opacity:1;stroke:#000000;stroke-opacity:1" />
      <path
         id="path14"
         fill-rule="evenodd"
         class="s1"
         d="m 567.46,784.65 c 9.45,0 14.08,5.99 14.08,12.98 0,7 -4.63,12.98 -14.08,12.98 -9.46,0 -14.08,-5.98 -14.08,-12.98 0,-6.99 4.62,-12.98 14.08,-12.98 z m 0,3.9 c -6.72,0 -9.18,4.68 -9.18,9.08 0,4.41 2.46,9.09 9.18,9.09 6.72,0 9.17,-4.68 9.17,-9.09 0,-4.4 -2.45,-9.08 -9.17,-9.08 z"
         style="fill:#000000;fill-opacity:1;stroke:#000000;stroke-opacity:1" />
      <path
         id="path15"
         class="s1"
         d="m 587.54,785.49 h 4.63 v 4.45 h 0.1 c 2.17,-3.85 5.28,-5.29 8.34,-5.29 1.15,0 1.76,0.06 2.64,0.28 v 5.01 c -1.16,-0.28 -2.04,-0.46 -3.29,-0.46 -4.58,0 -7.79,2.68 -7.79,7.96 v 12.33 h -4.63 z"
         style="fill:#000000;fill-opacity:1;stroke:#000000;stroke-opacity:1" />
      <path
         id="path16"
         class="s1"
         d="m 611.05,802.12 c 0,2.19 1.76,4.86 7.64,4.86 5.98,0 7.42,-2.08 7.42,-3.79 0,-1.71 -0.88,-2.73 -4.6,-3.24 l -7.64,-1.02 c -3.48,-0.46 -6.58,-2.69 -6.58,-6.43 0,-4.92 4.27,-7.84 11.08,-7.84 7.97,0 11.45,3.43 11.86,8.16 h -4.63 c -0.15,-2.47 -2.45,-4.55 -7.28,-4.55 -2.96,0 -6.39,0.84 -6.39,3.71 0,1.62 0.74,2.55 4.03,3.02 l 6.58,0.87 c 6.12,0.83 8.48,3.01 8.48,6.44 0,5.65 -4.78,8.29 -12.18,8.29 -5.56,0 -11.91,-1.43 -12.42,-8.48 z"
         style="fill:#000000;fill-opacity:1;stroke:#000000;stroke-opacity:1" />
      <path
         id="path17"
         fill-rule="evenodd"
         class="s1"
         d="m 636.69,785.49 h 4.63 v 3.38 h 0.1 c 1.8,-2.54 5.65,-3.93 9.22,-3.93 7.33,0 13.2,4.68 13.2,12.83 0,8.16 -5.87,12.84 -13.2,12.84 -3.61,0 -7.37,-1.3 -9.22,-3.95 h -0.1 v 12.47 h -4.63 z m 13.35,3.34 c -6.3,0 -8.99,4.36 -8.99,8.94 0,5.56 3.56,8.95 8.99,8.95 5.37,0 8.89,-3.39 8.89,-8.95 0,-4.58 -2.64,-8.94 -8.89,-8.94 z"
         style="fill:#000000;fill-opacity:1;stroke:#000000;stroke-opacity:1" />
      <path
         id="path18"
         fill-rule="evenodd"
         class="s1"
         d="m 682.86,784.65 c 9.46,0 14.09,5.99 14.09,12.98 0,7 -4.63,12.98 -14.09,12.98 -9.45,0 -14.08,-5.98 -14.08,-12.98 0,-6.99 4.63,-12.98 14.08,-12.98 z m 0,3.9 c -6.72,0 -9.16,4.68 -9.16,9.08 0,4.41 2.44,9.09 9.16,9.09 6.72,0 9.18,-4.68 9.18,-9.09 0,-4.4 -2.46,-9.08 -9.18,-9.08 z"
         style="fill:#000000;fill-opacity:1;stroke:#000000;stroke-opacity:1" />
      <path
         id="path19"
         class="s1"
         d="m 702.95,785.49 h 4.63 v 4.45 h 0.09 c 2.18,-3.85 5.29,-5.29 8.35,-5.29 1.16,0 1.75,0.06 2.63,0.28 v 5.01 c -1.15,-0.28 -2.04,-0.46 -3.28,-0.46 -4.59,0 -7.79,2.68 -7.79,7.96 v 12.33 h -4.63 z"
         style="fill:#000000;fill-opacity:1;stroke:#000000;stroke-opacity:1" />
      <path
         id="path20"
         class="s1"
         d="m 725.25,778.03 h 4.64 v 7.46 h 6.94 v 3.62 h -6.94 v 14.96 c 0,1.95 1.39,2.65 3.75,2.65 1.06,0 2.13,-0.15 3.19,-0.32 v 3.89 c -1.57,0.27 -3.29,0.32 -5.18,0.32 -4.54,0 -6.4,-2.23 -6.4,-5.75 v -15.75 h -5 v -3.62 h 5 z"
         style="fill:#000000;fill-opacity:1;stroke:#000000;stroke-opacity:1" />
      <path
         id="path21"
         class="s1"
         d="m 494.49,457.32 c 15.03,1.15 28.56,0.39 42.15,-0.25 -21.53,-0.62 -44.85,-3.58 -71.06,-11.06 -25.77,-7.34 -53.04,-17.32 -76.93,-25.24 13.4,6.56 29.96,14.65 46.51,22.74 2.21,1.38 4.54,3.12 6.63,4.08 22.84,10.58 45.28,20.18 66.13,26.02 0.87,0.24 1.91,0.77 4.06,1.66 -45.7,13.79 -69.1,46.52 -108.25,65.29 10.68,-4.51 21.83,-8.61 31.93,-13.66 16.47,-8.26 31.52,-17.82 48.52,-25.59 23.47,-10.73 46.36,-22.07 77.91,-26.11 -11.89,-1.19 -22.06,-1.59 -33.24,-3.44 -27.41,-4.53 -57.76,-14.21 -89.74,-26.88 -0.67,-0.27 -1.54,-1.01 -2.32,-1.53 20.98,7.43 40.7,12.67 57.7,13.97 z"
         style="fill:#000000;fill-opacity:1;stroke:#000000;stroke-opacity:1" />
      <path
         id="path22"
         class="s2"
         d="m 494.49,457.32 c 15.03,1.15 28.56,0.39 42.15,-0.25 -21.53,-0.62 -44.85,-3.58 -71.06,-11.06 -25.77,-7.34 -53.04,-17.32 -76.93,-25.24 13.4,6.56 29.96,14.65 46.51,22.74 2.21,1.38 4.54,3.12 6.63,4.08 22.84,10.58 45.28,20.18 66.13,26.02 0.87,0.24 1.91,0.77 4.06,1.66 -45.7,13.79 -69.1,46.52 -108.25,65.29 10.68,-4.51 21.83,-8.61 31.93,-13.66 16.47,-8.26 31.52,-17.82 48.52,-25.59 23.47,-10.73 46.36,-22.07 77.91,-26.11 -11.89,-1.19 -22.06,-1.59 -33.24,-3.44 -27.41,-4.53 -57.76,-14.21 -89.74,-26.88 -0.67,-0.27 -1.54,-1.01 -2.32,-1.53 20.98,7.43 40.7,12.67 57.7,13.97 z"
         style="fill:#000000;fill-opacity:1;stroke:#000000;stroke-opacity:1" />
      <path
         id="path23"
         class="s1"
         d="m 262.29,317.04 c 27.63,16.05 55.16,31.27 82.24,43.62 35.74,16.3 68.71,27.17 98.68,32.5 26.15,4.64 51.68,8.39 77.49,12.52 17.46,2.81 34.93,5.6 51.83,8.31 5.92,26.03 11.82,51.99 17.73,77.94 q 0.92,0.39 1.84,0.78 c 5.01,-3.63 9.37,-7.84 15.15,-10.77 15.96,-8.1 39.09,-8.34 65.41,-4.83 13.98,1.85 28.5,4.44 43.22,7.35 5.23,1.03 11.69,3.84 17.71,6.12 1.91,0.7 5.31,2.42 6.16,3.52 5.68,7.33 10.9,7.62 15.95,9.2 6.3,1.99 12.22,3.27 18.46,5.11 10.87,3.22 15.95,7.81 17.91,16.05 0.42,1.81 0.52,3.48 0.82,5.46 -20.21,-10.27 -35.37,-12.15 -48.12,-11.33 -19.95,1.28 -38.82,3.84 -57.11,6.95 -13.98,2.38 -26.35,6.44 -40.07,9.92 -0.22,-3.28 -0.04,-5.84 -0.7,-8.84 -1.42,-6.35 -6.9,-11.04 -13.8,-11.37 -7.25,-0.35 -13.4,0.65 -20.23,1.09 -0.27,-0.74 -0.76,-1.94 -1.15,-3.09 -2.53,-7.52 -7.73,-12.16 -16.06,-13.18 -8.72,-1.07 -15.98,-0.18 -24.04,-0.14 0,0.01 -0.69,-0.83 -1.02,-1.56 -3.07,-6.52 -6.45,-9.32 -12.55,-9.28 -7.7,0.06 -15.14,0.62 -21.12,2.49 -12.63,3.96 -24.56,8.62 -36.16,13.57 -11.73,5 -22.74,10.69 -34,16.12 -2.19,1.06 -4.12,2.36 -4.97,4.68 4.87,-2.18 9.53,-4.56 14.64,-6.49 22.21,-8.42 44.49,-16.78 66.96,-24.95 2.2,-0.8 5.71,-0.4 8.92,-0.18 4,0.28 7.29,3.52 7.02,5.86 -0.33,2.97 -1.73,5.57 -4.37,6.74 -12.48,5.57 -25.55,10.58 -37.22,16.97 6.58,-2.04 13.07,-4.14 19.75,-6.08 15.74,-4.53 31.44,-9.12 47.49,-13.34 3.19,-0.84 7.87,-0.17 13.24,-0.22 3.87,9.24 3.68,14.31 -1.93,15.96 -20.7,6.11 -41.37,12.24 -60.75,19.67 15.56,-3.88 31.36,-7.53 46.61,-11.71 15.03,-4.13 29.67,-8.64 47.82,-9.98 7.17,10.35 7.59,19.43 3.08,24.47 7.74,-2.25 15.22,-4.77 23.28,-6.71 28.36,-6.83 55.74,-14.74 91.49,-13.64 7.74,0.23 16.16,0.98 25.45,3.49 7.87,2.12 17.43,7.11 27.36,11.31 -1.41,-4.16 -2.82,-9.64 -5.39,-15.56 -2.88,-6.64 -8.03,-10.93 -16.5,-14.28 -4.07,-1.6 -7.92,-2.72 -11.93,-4.18 -7.61,-2.79 -14.2,-4.14 -23.85,-11.64 -5.63,-4.37 -14.39,-7.33 -20.08,-8.45 -24.54,-4.84 -48.46,-8.76 -72.62,-13.03 -15.36,-2.71 -30.7,-5.39 -46.12,-8.19 -2.14,-0.39 -4.64,-1.31 -8.23,-2.34 -0.46,-4.35 -1.01,-8.05 -1.21,-11.57 -1.63,-28.53 -1.56,-56.01 5.96,-78.86 1.9,-5.74 5.16,-10.66 9.53,-14.51 2.45,-2.16 7.97,-1.96 12.98,-1.75 7.26,0.29 15.12,1.04 12.65,-6.93 -2.51,-8.12 -12.59,-15.25 -22.11,-21.43 -18.47,-11.99 -35.65,-18.91 -51.94,-23.91 -37.95,-11.68 -75.43,-22.53 -113.46,-34.37 -32.43,-10.1 -65,-20.37 -98.18,-31.97 C 314.16,221.59 277.86,208.55 240.86,193.63 192.61,174.2 143.6,152.9 94.77,131.99 73.41,122.85 51.67,112.71 30.14,103.94 c 15.3,9.14 30.6,18.48 45.9,27.39 19.83,11.56 39.66,23.02 59.46,34.1 22.46,12.57 44.96,25.18 67.29,36.84 23.4,12.24 46.75,23.91 69.86,34.85 17.57,8.33 34.83,15.41 52.04,22.58 43.6,18.16 84.79,31.28 125.61,43.82 27.51,8.45 54.17,15.34 81.23,22.96 2.54,0.71 5.19,1.62 8.68,3.77 -6.47,-1 -12.83,-1.86 -19.43,-3.06 -37.66,-6.77 -74.79,-12.74 -113.25,-20.72 -38.76,-8.03 -79.92,-19.71 -124.1,-37.68 -35.76,-14.56 -72.54,-31.55 -109.11,-48.25 -20.32,-9.26 -41.13,-20.12 -61.78,-29.61 12.74,7.87 25.49,16.02 38.23,23.55 32.17,19.02 64.42,38.61 96.47,56.34 24.22,13.4 48.41,25.07 72.2,36.11 45.13,20.95 85.78,32.81 124.41,41.01 34.5,7.32 68.83,14.39 103.25,21.58 0.62,0.13 1.3,0.36 2.55,1.34 -12.04,-0.7 -24.18,-1.51 -36.11,-2.05 -34.19,-1.56 -69.03,-3.98 -106.85,-10.29 -35.66,-5.94 -74.59,-17.72 -116.94,-35.97 -22.2,-9.58 -44.79,-20.21 -67.2,-30.38 l -0.17,0.57 c 13.31,8.12 26.62,16.57 39.91,24.3 z"
         style="fill:#000000;fill-opacity:1;stroke:#000000;stroke-opacity:1" />
      <path
         id="path24"
         class="s2"
         d="m 262.29,317.04 c 27.63,16.05 55.16,31.27 82.24,43.62 35.74,16.3 68.71,27.17 98.68,32.5 26.15,4.64 51.68,8.39 77.49,12.52 17.46,2.81 34.93,5.6 51.83,8.31 5.92,26.03 11.82,51.99 17.73,77.94 q 0.92,0.39 1.84,0.78 c 5.01,-3.63 9.37,-7.84 15.15,-10.77 15.96,-8.1 39.09,-8.34 65.41,-4.83 13.98,1.85 28.5,4.44 43.22,7.35 5.23,1.03 11.69,3.84 17.71,6.12 1.91,0.7 5.31,2.42 6.16,3.52 5.68,7.33 10.9,7.62 15.95,9.2 6.3,1.99 12.22,3.27 18.46,5.11 10.87,3.22 15.95,7.81 17.91,16.05 0.42,1.81 0.52,3.48 0.82,5.46 -20.21,-10.27 -35.37,-12.15 -48.12,-11.33 -19.95,1.28 -38.82,3.84 -57.11,6.95 -13.98,2.38 -26.35,6.44 -40.07,9.92 -0.22,-3.28 -0.04,-5.84 -0.7,-8.84 -1.42,-6.35 -6.9,-11.04 -13.8,-11.37 -7.25,-0.35 -13.4,0.65 -20.23,1.09 -0.27,-0.74 -0.76,-1.94 -1.15,-3.09 -2.53,-7.52 -7.73,-12.16 -16.06,-13.18 -8.72,-1.07 -15.98,-0.18 -24.04,-0.14 0,0.01 -0.69,-0.83 -1.02,-1.56 -3.07,-6.52 -6.45,-9.32 -12.55,-9.28 -7.7,0.06 -15.14,0.62 -21.12,2.49 -12.63,3.96 -24.56,8.62 -36.16,13.57 -11.73,5 -22.74,10.69 -34,16.12 -2.19,1.06 -4.12,2.36 -4.97,4.68 4.87,-2.18 9.53,-4.56 14.64,-6.49 22.21,-8.42 44.49,-16.78 66.96,-24.95 2.2,-0.8 5.71,-0.4 8.92,-0.18 4,0.28 7.29,3.52 7.02,5.86 -0.33,2.97 -1.73,5.57 -4.37,6.74 -12.48,5.57 -25.55,10.58 -37.22,16.97 6.58,-2.04 13.07,-4.14 19.75,-6.08 15.74,-4.53 31.44,-9.12 47.49,-13.34 3.19,-0.84 7.87,-0.17 13.24,-0.22 3.87,9.24 3.68,14.31 -1.93,15.96 -20.7,6.11 -41.37,12.24 -60.75,19.67 15.56,-3.88 31.36,-7.53 46.61,-11.71 15.03,-4.13 29.67,-8.64 47.82,-9.98 7.17,10.35 7.59,19.43 3.08,24.47 7.74,-2.25 15.22,-4.77 23.28,-6.71 28.36,-6.83 55.74,-14.74 91.49,-13.64 7.74,0.23 16.16,0.98 25.45,3.49 7.87,2.12 17.43,7.11 27.36,11.31 -1.41,-4.16 -2.82,-9.64 -5.39,-15.56 -2.88,-6.64 -8.03,-10.93 -16.5,-14.28 -4.07,-1.6 -7.92,-2.72 -11.93,-4.18 -7.61,-2.79 -14.2,-4.14 -23.85,-11.64 -5.63,-4.37 -14.39,-7.33 -20.08,-8.45 -24.54,-4.84 -48.46,-8.76 -72.62,-13.03 -15.36,-2.71 -30.7,-5.39 -46.12,-8.19 -2.14,-0.39 -4.64,-1.31 -8.23,-2.34 -0.46,-4.35 -1.01,-8.05 -1.21,-11.57 -1.63,-28.53 -1.56,-56.01 5.96,-78.86 1.9,-5.74 5.16,-10.66 9.53,-14.51 2.45,-2.16 7.97,-1.96 12.98,-1.75 7.26,0.29 15.12,1.04 12.65,-6.93 -2.51,-8.12 -12.59,-15.25 -22.11,-21.43 -18.47,-11.99 -35.65,-18.91 -51.94,-23.91 -37.95,-11.68 -75.43,-22.53 -113.46,-34.37 -32.43,-10.1 -65,-20.37 -98.18,-31.97 C 314.16,221.59 277.86,208.55 240.86,193.63 192.61,174.2 143.6,152.9 94.77,131.99 73.41,122.85 51.67,112.71 30.14,103.94 c 15.3,9.14 30.6,18.48 45.9,27.39 19.83,11.56 39.66,23.02 59.46,34.1 22.46,12.57 44.96,25.18 67.29,36.84 23.4,12.24 46.75,23.91 69.86,34.85 17.57,8.33 34.83,15.41 52.04,22.58 43.6,18.16 84.79,31.28 125.61,43.82 27.51,8.45 54.17,15.34 81.23,22.96 2.54,0.71 5.19,1.62 8.68,3.77 -6.47,-1 -12.83,-1.86 -19.43,-3.06 -37.66,-6.77 -74.79,-12.74 -113.25,-20.72 -38.76,-8.03 -79.92,-19.71 -124.1,-37.68 -35.76,-14.56 -72.54,-31.55 -109.11,-48.25 -20.32,-9.26 -41.13,-20.12 -61.78,-29.61 12.74,7.87 25.49,16.02 38.23,23.55 32.17,19.02 64.42,38.61 96.47,56.34 24.22,13.4 48.41,25.07 72.2,36.11 45.13,20.95 85.78,32.81 124.41,41.01 34.5,7.32 68.83,14.39 103.25,21.58 0.62,0.13 1.3,0.36 2.55,1.34 -12.04,-0.7 -24.18,-1.51 -36.11,-2.05 -34.19,-1.56 -69.03,-3.98 -106.85,-10.29 -35.66,-5.94 -74.59,-17.72 -116.94,-35.97 -22.2,-9.58 -44.79,-20.21 -67.2,-30.38 l -0.17,0.57 c 13.31,8.12 26.62,16.57 39.91,24.3 z"
         style="fill:#000000;fill-opacity:1;stroke:#000000;stroke-opacity:1" />
      <path
         id="path25"
         class="s1"
         d="m 344.29,396.11 c 6.01,2.66 12.14,5.57 18.04,7.92 43.69,17.5 86.05,32.36 125.06,40.95 26.78,5.9 50.88,8.33 68.13,2.46 11.62,-3.95 16.14,-12.95 12.37,-28.74 -57.22,15.99 -134.35,4.55 -223.6,-22.59 z"
         style="fill:#000000;fill-opacity:1;stroke:#000000;stroke-opacity:1" />
      <path
         id="path26"
         class="s2"
         d="m 344.29,396.11 c 6.01,2.66 12.14,5.57 18.04,7.92 43.69,17.5 86.05,32.36 125.06,40.95 26.78,5.9 50.88,8.33 68.13,2.46 11.62,-3.95 16.14,-12.95 12.37,-28.74 -57.22,15.99 -134.35,4.55 -223.6,-22.59 z"
         style="fill:#000000;fill-opacity:1;stroke:#000000;stroke-opacity:1" />
      <path
         id="path27"
         class="s1"
         d="m 109.7,166.38 c 54.2,35.28 108,65.87 160.72,88.67 52.72,22.78 100.85,36.89 144.93,43.9 C 318.42,268.9 217.25,226.45 109.7,166.38 Z"
         style="fill:#000000;fill-opacity:1;stroke:#000000;stroke-opacity:1" />
      <path
         id="path28"
         class="s2"
         d="m 109.7,166.38 c 54.2,35.28 108,65.87 160.72,88.67 52.72,22.78 100.85,36.89 144.93,43.9 C 318.42,268.9 217.25,226.45 109.7,166.38 Z"
         style="fill:#000000;fill-opacity:1;stroke:#000000;stroke-opacity:1" />
      <path
         id="path29"
         class="s1"
         d="m 501.64,413.04 c -71.05,-6.96 -154.17,-37.25 -246.21,-81.88 101.18,62.3 179.69,83.66 246.21,81.88 z"
         style="fill:#000000;fill-opacity:1;stroke:#000000;stroke-opacity:1" />
      <path
         id="path30"
         class="s2"
         d="m 501.64,413.04 c -71.05,-6.96 -154.17,-37.25 -246.21,-81.88 101.18,62.3 179.69,83.66 246.21,81.88 z"
         style="fill:#000000;fill-opacity:1;stroke:#000000;stroke-opacity:1" />
      <path
         id="path31"
         class="s1"
         d="m 181.98,251.35 c 93.82,64.33 174.36,94.51 245.9,101.99 -75.34,-16.7 -158.41,-53.67 -245.9,-101.99 z"
         style="fill:#000000;fill-opacity:1;stroke:#000000;stroke-opacity:1" />
      <path
         id="path32"
         class="s2"
         d="m 181.98,251.35 c 93.82,64.33 174.36,94.51 245.9,101.99 -75.34,-16.7 -158.41,-53.67 -245.9,-101.99 z"
         style="fill:#000000;fill-opacity:1;stroke:#000000;stroke-opacity:1" />
      <path
         id="path33"
         fill-rule="evenodd"
         class="s1"
         d="m 222.55,292.17 c 22.41,10.17 45,20.8 67.2,30.38 42.35,18.26 81.28,30.03 116.94,35.98 37.82,6.3 72.66,8.72 106.85,10.28 11.93,0.54 24.07,1.35 36.11,2.04 -1.25,-0.98 -1.93,-1.2 -2.55,-1.33 -34.42,-7.19 -68.75,-14.26 -103.26,-21.58 -38.62,-8.2 -79.27,-20.06 -124.4,-41.01 -23.79,-11.04 -47.98,-22.71 -72.2,-36.11 -32.05,-17.73 -64.31,-37.32 -96.47,-56.34 -12.74,-7.53 -25.49,-15.69 -38.23,-23.55 20.65,9.49 41.46,20.34 61.78,29.62 36.57,16.68 73.35,33.68 109.11,48.24 44.18,17.97 85.34,29.65 124.1,37.68 38.46,7.97 75.59,13.95 113.25,20.72 6.6,1.2 12.96,2.05 19.42,3.07 -3.48,-2.16 -6.13,-3.07 -8.68,-3.79 C 504.47,318.86 477.81,311.96 450.3,303.52 409.48,290.98 368.29,277.85 324.69,259.7 307.47,252.53 290.22,245.45 272.65,237.12 249.54,226.17 226.19,214.51 202.79,202.28 180.47,190.6 157.96,178 135.5,165.42 115.7,154.35 95.87,142.9 76.04,131.34 c -15.3,-8.92 -30.6,-18.26 -45.9,-27.4 21.53,8.76 43.26,18.91 64.63,28.05 48.82,20.91 97.83,42.2 146.09,61.65 37,14.91 73.3,27.96 109.27,40.52 33.19,11.59 65.74,21.86 98.17,31.96 38.04,11.84 75.52,22.68 113.46,34.37 16.3,5.01 33.48,11.92 51.95,23.91 9.52,6.18 19.6,13.31 22.11,21.43 2.47,7.96 -5.39,7.23 -12.65,6.93 -5.01,-0.21 -10.53,-0.41 -12.98,1.75 -4.37,3.86 -7.63,8.77 -9.53,14.51 -7.52,22.85 -7.59,50.34 -5.96,78.86 0.2,3.51 0.75,7.22 1.21,11.57 3.59,1.04 6.09,1.95 8.23,2.34 15.42,2.79 30.76,5.48 46.13,8.19 24.15,4.27 48.07,8.19 72.61,13.03 5.69,1.12 14.46,4.08 20.08,8.45 9.65,7.49 16.24,8.85 23.85,11.64 4.01,1.46 7.85,2.57 11.93,4.18 8.47,3.35 13.62,7.64 16.5,14.28 2.57,5.93 3.98,11.4 5.39,15.55 -9.92,-4.19 -19.5,-9.17 -27.37,-11.3 -9.28,-2.5 -17.7,-3.27 -25.44,-3.49 -35.75,-1.09 -63.13,6.81 -91.49,13.64 -8.06,1.94 -15.54,4.46 -23.28,6.71 4.51,-5.05 4.09,-14.11 -3.08,-24.46 -18.15,1.33 -32.79,5.84 -47.82,9.96 -15.25,4.19 -31.05,7.83 -46.61,11.72 19.38,-7.43 40.05,-13.56 60.75,-19.67 5.61,-1.65 5.8,-6.72 1.93,-15.95 -5.37,0.04 -10.05,-0.63 -13.24,0.21 -16.05,4.23 -31.75,8.81 -47.49,13.34 -6.68,1.93 -13.17,4.04 -19.75,6.08 11.67,-6.39 24.74,-11.4 37.22,-16.97 2.64,-1.17 4.04,-3.77 4.37,-6.73 0.27,-2.35 -3.02,-5.59 -7.02,-5.87 -3.21,-0.22 -6.72,-0.63 -8.92,0.17 -22.46,8.18 -44.75,16.53 -66.96,24.95 -5.11,1.94 -9.77,4.32 -14.63,6.5 0.84,-2.32 2.77,-3.61 4.96,-4.67 11.26,-5.44 22.27,-11.13 34,-16.14 11.6,-4.94 23.53,-9.6 36.16,-13.55 5.98,-1.88 13.42,-2.44 21.13,-2.49 6.1,-0.05 9.47,2.75 12.54,9.28 0.33,0.71 1.02,1.56 1.02,1.56 8.06,-0.05 15.32,-0.95 24.04,0.13 8.33,1.02 13.53,5.65 16.06,13.17 0.39,1.16 0.88,2.36 1.15,3.1 6.83,-0.43 12.98,-1.44 20.23,-1.09 6.9,0.33 12.38,5.02 13.8,11.37 0.66,3 0.48,5.56 0.7,8.84 13.72,-3.48 26.1,-7.55 40.07,-9.92 18.29,-3.11 37.15,-5.66 57.11,-6.95 12.75,-0.82 27.91,1.06 48.11,11.34 -0.29,-1.99 -0.39,-3.65 -0.82,-5.48 -1.95,-8.23 -7.03,-12.82 -17.9,-16.04 -6.24,-1.84 -12.16,-3.12 -18.46,-5.11 -5.05,-1.58 -10.27,-1.87 -15.95,-9.2 -0.85,-1.1 -4.25,-2.81 -6.16,-3.53 -6.02,-2.27 -12.48,-5.08 -17.71,-6.11 -14.72,-2.9 -29.24,-5.5 -43.22,-7.35 -26.32,-3.51 -49.45,-3.28 -65.41,4.83 -5.78,2.93 -10.14,7.14 -15.15,10.77 q -0.92,-0.39 -1.84,-0.77 c -5.91,-25.96 -11.81,-51.92 -17.73,-77.95 -16.91,-2.71 -34.37,-5.5 -51.83,-8.3 -25.81,-4.14 -51.34,-7.89 -77.49,-12.53 -29.98,-5.32 -62.94,-16.21 -98.68,-32.51 -27.08,-12.34 -54.61,-27.56 -82.24,-43.61 -13.29,-7.72 -26.6,-16.18 -39.91,-24.3 z M 447.14,277.69 C 412.4,266.3 377.98,255.63 342.59,242.9 301.94,228.28 260.75,212.7 219.06,195.69 c -24.42,-9.96 -50.27,-23.49 -75.49,-35.44 -3.65,-1.73 -7.35,-3.61 -11.02,-4.66 7.44,4.37 14.9,9 22.31,13.08 33.51,18.46 66.44,34.63 99.04,48.98 41.48,18.26 81.35,33 119.98,45.2 25.22,7.96 49.33,13.83 73.58,20.06 14.66,3.76 28.64,6.42 42.93,9.58 q -0.31,-0.74 -0.61,-1.47 c -14.2,-4.43 -28.3,-8.63 -42.64,-13.33 z M 221.53,248.4 c 111.65,57.98 205.38,82.53 290.94,91.84 -93.29,-23.73 -185.04,-44.6 -290.94,-91.84 z m 265.15,136.88 c -23.15,-5.83 -45.99,-11.15 -69.53,-17.65 -23.64,-6.53 -47.52,-13.37 -72.13,-21.71 -24.68,-8.37 -50.38,-18.76 -75.06,-28.06 82.56,42.26 152.78,60.7 216.72,67.42 z"
         style="fill:#000000;fill-opacity:1;stroke:#000000;stroke-opacity:1" />
      <path
         id="path34"
         fill-rule="evenodd"
         class="s3"
         d="m 222.55,292.17 c 22.41,10.17 45,20.8 67.2,30.38 42.35,18.26 81.28,30.03 116.94,35.98 37.82,6.3 72.66,8.72 106.85,10.28 11.93,0.54 24.07,1.35 36.11,2.04 -1.25,-0.98 -1.93,-1.2 -2.55,-1.33 -34.42,-7.19 -68.75,-14.26 -103.26,-21.58 -38.62,-8.2 -79.27,-20.06 -124.4,-41.01 -23.79,-11.04 -47.98,-22.71 -72.2,-36.11 -32.05,-17.73 -64.31,-37.32 -96.47,-56.34 -12.74,-7.53 -25.49,-15.69 -38.23,-23.55 20.65,9.49 41.46,20.34 61.78,29.62 36.57,16.68 73.35,33.68 109.11,48.24 44.18,17.97 85.34,29.65 124.1,37.68 38.46,7.97 75.59,13.95 113.25,20.72 6.6,1.2 12.96,2.05 19.42,3.07 -3.48,-2.16 -6.13,-3.07 -8.68,-3.79 C 504.47,318.86 477.81,311.96 450.3,303.52 409.48,290.98 368.29,277.85 324.69,259.7 307.47,252.53 290.22,245.45 272.65,237.12 249.54,226.17 226.19,214.51 202.79,202.28 180.47,190.6 157.96,178 135.5,165.42 115.7,154.35 95.87,142.9 76.04,131.34 c -15.3,-8.92 -30.6,-18.26 -45.9,-27.4 21.53,8.76 43.26,18.91 64.63,28.05 48.82,20.91 97.83,42.2 146.09,61.65 37,14.91 73.3,27.96 109.27,40.52 33.19,11.59 65.74,21.86 98.17,31.96 38.04,11.84 75.52,22.68 113.46,34.37 16.3,5.01 33.48,11.92 51.95,23.91 9.52,6.18 19.6,13.31 22.11,21.43 2.47,7.96 -5.39,7.23 -12.65,6.93 -5.01,-0.21 -10.53,-0.41 -12.98,1.75 -4.37,3.86 -7.63,8.77 -9.53,14.51 -7.52,22.85 -7.59,50.34 -5.96,78.86 0.2,3.51 0.75,7.22 1.21,11.57 3.59,1.04 6.09,1.95 8.23,2.34 15.42,2.79 30.76,5.48 46.13,8.19 24.15,4.27 48.07,8.19 72.61,13.03 5.69,1.12 14.46,4.08 20.08,8.45 9.65,7.49 16.24,8.85 23.85,11.64 4.01,1.46 7.85,2.57 11.93,4.18 8.47,3.35 13.62,7.64 16.5,14.28 2.57,5.93 3.98,11.4 5.39,15.55 -9.92,-4.19 -19.5,-9.17 -27.37,-11.3 -9.28,-2.5 -17.7,-3.27 -25.44,-3.49 -35.75,-1.09 -63.13,6.81 -91.49,13.64 -8.06,1.94 -15.54,4.46 -23.28,6.71 4.51,-5.05 4.09,-14.11 -3.08,-24.46 -18.15,1.33 -32.79,5.84 -47.82,9.96 -15.25,4.19 -31.05,7.83 -46.61,11.72 19.38,-7.43 40.05,-13.56 60.75,-19.67 5.61,-1.65 5.8,-6.72 1.93,-15.95 -5.37,0.04 -10.05,-0.63 -13.24,0.21 -16.05,4.23 -31.75,8.81 -47.49,13.34 -6.68,1.93 -13.17,4.04 -19.75,6.08 11.67,-6.39 24.74,-11.4 37.22,-16.97 2.64,-1.17 4.04,-3.77 4.37,-6.73 0.27,-2.35 -3.02,-5.59 -7.02,-5.87 -3.21,-0.22 -6.72,-0.63 -8.92,0.17 -22.46,8.18 -44.75,16.53 -66.96,24.95 -5.11,1.94 -9.77,4.32 -14.63,6.5 0.84,-2.32 2.77,-3.61 4.96,-4.67 11.26,-5.44 22.27,-11.13 34,-16.14 11.6,-4.94 23.53,-9.6 36.16,-13.55 5.98,-1.88 13.42,-2.44 21.13,-2.49 6.1,-0.05 9.47,2.75 12.54,9.28 0.33,0.71 1.02,1.56 1.02,1.56 8.06,-0.05 15.32,-0.95 24.04,0.13 8.33,1.02 13.53,5.65 16.06,13.17 0.39,1.16 0.88,2.36 1.15,3.1 6.83,-0.43 12.98,-1.44 20.23,-1.09 6.9,0.33 12.38,5.02 13.8,11.37 0.66,3 0.48,5.56 0.7,8.84 13.72,-3.48 26.1,-7.55 40.07,-9.92 18.29,-3.11 37.15,-5.66 57.11,-6.95 12.75,-0.82 27.91,1.06 48.11,11.34 -0.29,-1.99 -0.39,-3.65 -0.82,-5.48 -1.95,-8.23 -7.03,-12.82 -17.9,-16.04 -6.24,-1.84 -12.16,-3.12 -18.46,-5.11 -5.05,-1.58 -10.27,-1.87 -15.95,-9.2 -0.85,-1.1 -4.25,-2.81 -6.16,-3.53 -6.02,-2.27 -12.48,-5.08 -17.71,-6.11 -14.72,-2.9 -29.24,-5.5 -43.22,-7.35 -26.32,-3.51 -49.45,-3.28 -65.41,4.83 -5.78,2.93 -10.14,7.14 -15.15,10.77 q -0.92,-0.39 -1.84,-0.77 c -5.91,-25.96 -11.81,-51.92 -17.73,-77.95 -16.91,-2.71 -34.37,-5.5 -51.83,-8.3 -25.81,-4.14 -51.34,-7.89 -77.49,-12.53 -29.98,-5.32 -62.94,-16.21 -98.68,-32.51 -27.08,-12.34 -54.61,-27.56 -82.24,-43.61 -13.29,-7.72 -26.6,-16.18 -39.91,-24.3 z M 447.14,277.69 C 412.4,266.3 377.98,255.63 342.59,242.9 301.94,228.28 260.75,212.7 219.06,195.69 c -24.42,-9.96 -50.27,-23.49 -75.49,-35.44 -3.65,-1.73 -7.35,-3.61 -11.02,-4.66 7.44,4.37 14.9,9 22.31,13.08 33.51,18.46 66.44,34.63 99.04,48.98 41.48,18.26 81.35,33 119.98,45.2 25.22,7.96 49.33,13.83 73.58,20.06 14.66,3.76 28.64,6.42 42.93,9.58 q -0.31,-0.74 -0.61,-1.47 c -14.2,-4.43 -28.3,-8.63 -42.64,-13.33 z M 221.53,248.4 c 111.65,57.98 205.38,82.53 290.94,91.84 -93.29,-23.73 -185.04,-44.6 -290.94,-91.84 z m 265.15,136.88 c -23.15,-5.83 -45.99,-11.15 -69.53,-17.65 -23.64,-6.53 -47.52,-13.37 -72.13,-21.71 -24.68,-8.37 -50.38,-18.76 -75.06,-28.06 82.56,42.26 152.78,60.7 216.72,67.42 z"
         style="fill:#000000;fill-opacity:1;stroke:#000000;stroke-opacity:1" />
      <path
         id="path35"
         fill-rule="evenodd"
         class="s1"
         d="m 555.52,447.44 c -17.25,5.87 -41.35,3.44 -68.13,-2.46 -39.01,-8.59 -81.37,-23.45 -125.06,-40.94 -5.91,-2.36 -12.03,-5.27 -18.04,-7.93 89.25,27.14 166.38,38.58 223.6,22.58 3.77,15.8 -0.75,24.8 -12.37,28.75 z M 396.25,414.3 c 2.7,1 5.44,2.07 8.09,2.97 2.97,1.03 5.87,1.92 8.78,2.82 34.52,10.71 66.67,17.74 96.18,20.85 19.34,2.04 36.85,1.87 46.59,-6.5 1.09,-0.94 1.98,-2.03 2.96,-3.06 -44.07,7.93 -99.82,-0.12 -162.6,-17.08 z"
         style="fill:#000000;fill-opacity:1;stroke:#000000;stroke-opacity:1" />
      <path
         id="path36"
         fill-rule="evenodd"
         class="s3"
         d="m 555.52,447.44 c -17.25,5.87 -41.35,3.44 -68.13,-2.46 -39.01,-8.59 -81.37,-23.45 -125.06,-40.94 -5.91,-2.36 -12.03,-5.27 -18.04,-7.93 89.25,27.14 166.38,38.58 223.6,22.58 3.77,15.8 -0.75,24.8 -12.37,28.75 z M 396.25,414.3 c 2.7,1 5.44,2.07 8.09,2.97 2.97,1.03 5.87,1.92 8.78,2.82 34.52,10.71 66.67,17.74 96.18,20.85 19.34,2.04 36.85,1.87 46.59,-6.5 1.09,-0.94 1.98,-2.03 2.96,-3.06 -44.07,7.93 -99.82,-0.12 -162.6,-17.08 z"
         style="fill:#000000;fill-opacity:1;stroke:#000000;stroke-opacity:1" />
      <path
         id="path37"
         class="s1"
         d="M 415.35,298.95 C 318.42,268.9 217.25,226.45 109.7,166.38 c 54.2,35.28 107.99,65.87 160.73,88.67 52.71,22.78 100.84,36.89 144.92,43.9 z"
         style="fill:#000000;fill-opacity:1;stroke:#000000;stroke-opacity:1" />
      <path
         id="path38"
         class="s3"
         d="M 415.35,298.95 C 318.42,268.9 217.25,226.45 109.7,166.38 c 54.2,35.28 107.99,65.87 160.73,88.67 52.71,22.78 100.84,36.89 144.92,43.9 z"
         style="fill:#000000;fill-opacity:1;stroke:#000000;stroke-opacity:1" />
      <path
         id="path39"
         class="s1"
         d="m 434.87,443.57 c 2.21,1.38 4.53,3.13 6.62,4.08 22.85,10.58 45.29,20.17 66.14,26.02 0.87,0.24 1.89,0.76 4.04,1.66 -45.68,13.79 -69.08,46.51 -108.24,65.29 10.68,-4.52 21.84,-8.61 31.93,-13.67 16.48,-8.25 31.52,-17.81 48.52,-25.58 23.48,-10.73 46.37,-22.08 77.92,-26.11 -11.9,-1.19 -22.06,-1.59 -33.25,-3.45 -27.4,-4.52 -57.76,-14.2 -89.74,-26.88 -0.68,-0.25 -1.54,-1 -2.31,-1.53 q -0.82,0.08 -1.63,0.17 z"
         style="fill:#000000;fill-opacity:1;stroke:#000000;stroke-opacity:1" />
      <path
         id="path40"
         class="s1"
         d="m 255.43,331.17 c 101.18,62.29 179.68,83.65 246.21,81.87 -71.05,-6.96 -154.17,-37.24 -246.21,-81.87 z"
         style="fill:#000000;fill-opacity:1;stroke:#000000;stroke-opacity:1" />
      <path
         id="path41"
         class="s3"
         d="m 255.43,331.17 c 101.18,62.29 179.68,83.65 246.21,81.87 -71.05,-6.96 -154.17,-37.24 -246.21,-81.87 z"
         style="fill:#000000;fill-opacity:1;stroke:#000000;stroke-opacity:1" />
      <path
         id="path42"
         class="s1"
         d="m 427.88,353.34 c -75.33,-16.69 -158.41,-53.67 -245.9,-101.99 93.81,64.33 174.36,94.5 245.9,101.99 z"
         style="fill:#000000;fill-opacity:1;stroke:#000000;stroke-opacity:1" />
      <path
         id="path43"
         class="s3"
         d="m 427.88,353.34 c -75.33,-16.69 -158.41,-53.67 -245.9,-101.99 93.81,64.33 174.36,94.5 245.9,101.99 z"
         style="fill:#000000;fill-opacity:1;stroke:#000000;stroke-opacity:1" />
      <path
         id="path44"
         class="s1"
         d="m 435.16,443.51 q 0.81,-0.09 1.63,-0.16 c 20.97,7.43 40.7,12.67 57.71,13.97 15.02,1.15 28.56,0.39 42.14,-0.25 -21.53,-0.62 -44.85,-3.58 -71.06,-11.05 -25.77,-7.35 -53.04,-17.33 -76.92,-25.25 13.39,6.56 29.95,14.65 46.5,22.74 z"
         style="fill:#000000;fill-opacity:1;stroke:#000000;stroke-opacity:1" />
      <path
         id="path45"
         class="s3"
         d="m 435.16,443.51 q 0.81,-0.09 1.63,-0.16 c 20.97,7.43 40.7,12.67 57.71,13.97 15.02,1.15 28.56,0.39 42.14,-0.25 -21.53,-0.62 -44.85,-3.58 -71.06,-11.05 -25.77,-7.35 -53.04,-17.33 -76.92,-25.25 13.39,6.56 29.95,14.65 46.5,22.74 z"
         style="fill:#000000;fill-opacity:1;stroke:#000000;stroke-opacity:1" />
      <path
         id="path46"
         class="s1"
         d="m 489.78,291.02 c -14.2,-4.43 -28.29,-8.63 -42.63,-13.33 C 412.4,266.3 377.98,255.63 342.6,242.9 301.93,228.27 260.75,212.7 219.06,195.69 c -24.42,-9.96 -50.27,-23.49 -75.48,-35.44 -3.66,-1.73 -7.36,-3.62 -11.02,-4.67 7.43,4.38 14.9,9 22.3,13.09 33.52,18.46 66.44,34.63 99.05,48.98 41.47,18.26 81.34,32.98 119.97,45.19 25.22,7.97 49.33,13.84 73.59,20.06 14.65,3.77 28.64,6.43 42.92,9.59 q -0.3,-0.74 -0.61,-1.47 z"
         style="fill:#000000;fill-opacity:1;stroke:#000000;stroke-opacity:1" />
      <path
         id="path47"
         class="s4"
         d="m 489.78,291.02 c -14.2,-4.43 -28.29,-8.63 -42.63,-13.33 C 412.4,266.3 377.98,255.63 342.6,242.9 301.93,228.27 260.75,212.7 219.06,195.69 c -24.42,-9.96 -50.27,-23.49 -75.48,-35.44 -3.66,-1.73 -7.36,-3.62 -11.02,-4.67 7.43,4.38 14.9,9 22.3,13.09 33.52,18.46 66.44,34.63 99.05,48.98 41.47,18.26 81.34,32.98 119.97,45.19 25.22,7.97 49.33,13.84 73.59,20.06 14.65,3.77 28.64,6.43 42.92,9.59 q -0.3,-0.74 -0.61,-1.47 z"
         style="fill:#000000;fill-opacity:1;stroke:#000000;stroke-opacity:1" />
      <path
         id="path48"
         class="s1"
         d="m 512.48,340.24 c -93.3,-23.73 -185.05,-44.6 -290.95,-91.84 111.65,57.99 205.39,82.52 290.95,91.84 z"
         style="fill:#000000;fill-opacity:1;stroke:#000000;stroke-opacity:1" />
      <path
         id="path49"
         class="s4"
         d="m 512.48,340.24 c -93.3,-23.73 -185.05,-44.6 -290.95,-91.84 111.65,57.99 205.39,82.52 290.95,91.84 z"
         style="fill:#000000;fill-opacity:1;stroke:#000000;stroke-opacity:1" />
      <path
         id="path50"
         class="s1"
         d="m 269.96,317.86 c 82.56,42.26 152.78,60.69 216.72,67.42 -23.15,-5.83 -45.99,-11.15 -69.53,-17.65 -23.64,-6.54 -47.52,-13.37 -72.12,-21.71 -24.69,-8.37 -50.39,-18.76 -75.07,-28.06 z"
         style="fill:#000000;fill-opacity:1;stroke:#000000;stroke-opacity:1" />
      <path
         id="path51"
         class="s4"
         d="m 269.96,317.86 c 82.56,42.26 152.78,60.69 216.72,67.42 -23.15,-5.83 -45.99,-11.15 -69.53,-17.65 -23.64,-6.54 -47.52,-13.37 -72.12,-21.71 -24.69,-8.37 -50.39,-18.76 -75.07,-28.06 z"
         style="fill:#000000;fill-opacity:1;stroke:#000000;stroke-opacity:1" />
      <path
         id="path52"
         class="s1"
         d="m 558.85,431.38 c -44.06,7.93 -99.81,-0.12 -162.6,-17.08 2.7,1 5.43,2.07 8.09,2.98 2.96,1.01 5.87,1.91 8.78,2.81 34.51,10.71 66.68,17.75 96.18,20.85 19.34,2.04 36.85,1.87 46.59,-6.5 1.09,-0.93 1.98,-2.03 2.96,-3.06 z"
         style="fill:#000000;fill-opacity:1;stroke:#000000;stroke-opacity:1" />
      <path
         id="path53"
         class="s4"
         d="m 558.85,431.38 c -44.06,7.93 -99.81,-0.12 -162.6,-17.08 2.7,1 5.43,2.07 8.09,2.98 2.96,1.01 5.87,1.91 8.78,2.81 34.51,10.71 66.68,17.75 96.18,20.85 19.34,2.04 36.85,1.87 46.59,-6.5 1.09,-0.93 1.98,-2.03 2.96,-3.06 z"
         style="fill:#000000;fill-opacity:1;stroke:#000000;stroke-opacity:1" />
      <path
         id="path54"
         class="s1"
         d="m 214.71,596.43 c 35.87,0 86.08,0.01 86.08,0.01 5.9,0 11.83,-6.1 13.58,-13.16 1.75,-7.05 -1.16,-13.15 -7.07,-13.15 0,0 -34.08,-0.23 -86.02,-0.23 -49.46,0 -98.13,35.75 -114.32,81.45 h 29.25 c 12.55,-31.01 46.73,-54.92 78.5,-54.92 z"
         style="fill:#000000;fill-opacity:1;stroke:#000000;stroke-opacity:1" />
      <path
         id="path55"
         class="s1"
         d="m 177.87,751.69 c 50.54,0 84.55,-0.22 84.55,-0.22 5.89,0 11.83,-6.11 13.58,-13.16 1.74,-7.06 -1.17,-13.16 -7.08,-13.16 0,0 -49.59,0 -84.49,0 -30.95,0 -53.18,-21.47 -53.12,-50.11 h -29.56 c -3.66,43.37 27.08,76.65 76.12,76.65 z"
         style="fill:#000000;fill-opacity:1;stroke:#000000;stroke-opacity:1" />
      <path
         id="path56"
         class="s1"
         d="m 435.05,595.97 c 31.29,-0.01 58.35,-0.03 58.35,-0.03 5.83,0 11.81,-5.99 13.52,-12.93 1.72,-6.93 -1.21,-12.94 -7.12,-12.94 h -67.34 -9.27 -67.35 c -5.89,0.16 -11.78,5.97 -13.51,12.94 -1.69,6.82 0.89,12.71 7.1,12.94 0.33,0.03 26.15,0.03 58.33,0.03 -3.4,13.69 -8.44,34.07 -13.71,55.37 h 27.29 z"
         style="fill:#000000;fill-opacity:1;stroke:#000000;stroke-opacity:1" />
      <path
         id="path57"
         class="s1"
         d="m 371,744.55 c -1.42,5.74 3.8,10.15 11.12,10.15 7.31,0 14.71,-4.34 16.15,-10.15 l 17.21,-69.51 h -27.3 C 379.15,711.57 371,744.55 371,744.55 Z"
         style="fill:#000000;fill-opacity:1;stroke:#000000;stroke-opacity:1" />
      <path
         id="path58"
         class="s1"
         d="m 707.04,738.65 c -1.71,7.08 2.65,14.23 9.74,15.94 7.1,1.72 14.23,-2.64 15.94,-9.74 l 16.88,-69.81 h -27.18 z"
         style="fill:#000000;fill-opacity:1;stroke:#000000;stroke-opacity:1" />
      <path
         id="path59"
         class="s1"
         d="m 497.01,738.82 c -1.71,7.09 2.64,14.22 9.74,15.94 q 1.56,0.38 3.11,0.38 c 5.96,0 11.37,-4.07 12.83,-10.11 l 16.93,-69.99 h -27.18 z"
         style="fill:#000000;fill-opacity:1;stroke:#000000;stroke-opacity:1" />
      <path
         id="path60"
         class="s1"
         d="m 558.71,596.08 77.79,-0.06 -13.56,55.33 h 27.2 l 13.57,-55.36 26.19,-0.02 h 0.04 c 15.01,0 27.83,5.36 35.19,14.71 6.44,8.17 8.37,18.58 5.58,30.11 l -2.55,10.56 h 27.17 l 1.06,-4.35 c 4.69,-19.41 0.96,-38.1 -10.5,-52.67 -12.41,-15.75 -32.8,-24.77 -55.95,-24.77 h -0.07 l -141.57,0.12 c -6.09,0 -11.39,4.17 -12.82,10.09 l -17.31,71.58 h 27.18 z"
         style="fill:#000000;fill-opacity:1;stroke:#000000;stroke-opacity:1" />
      <path
         id="path61"
         class="s1"
         d="m 601.55,738.7 c -1.74,7.09 2.6,14.24 9.69,15.97 q 1.58,0.39 3.15,0.39 c 5.94,0 11.34,-4.04 12.81,-10.07 l 17.14,-69.95 h -27.2 z"
         style="fill:#000000;fill-opacity:1;stroke:#000000;stroke-opacity:1" />
    </g>
  </g>
</svg>
